<svg width="170" height="48" viewBox="0 0 170 48" fill="none" xmlns="http://www.w3.org/2000/svg">
<path d="M1 6.4C1 3.46263 3.51367 1 6.71969 1H163.28C166.486 1 169 3.46263 169 6.4V41.6C169 44.5374 166.486 47 163.28 47H6.71969C3.51367 47 1 44.5374 1 41.6V6.4Z" fill="white" stroke="black" stroke-width="2"/>
<path d="M38.4169 24.978C38.3991 22.164 39.7372 20.044 42.4395 18.481C40.9283 16.418 38.6421 15.284 35.627 15.065C32.7735 14.851 29.6509 16.649 28.5079 16.649C27.2991 16.649 24.5363 15.139 22.3618 15.139C17.875 15.206 13.1067 18.547 13.1067 25.345C13.1067 27.354 13.4926 29.429 14.2644 31.565C15.2937 34.379 19.0098 41.272 22.8864 41.16C24.9128 41.115 26.3469 39.79 28.9845 39.79C31.5439 39.79 32.8684 41.16 35.1295 41.16C39.0406 41.107 42.4009 34.84 43.3792 32.02C38.1353 29.664 38.4169 25.122 38.4169 24.978ZM33.8644 12.396C36.0609 9.91297 35.8617 7.65297 35.7959 6.83997C33.8561 6.94697 31.6137 8.09797 30.3351 9.51297C28.9271 11.031 28.1001 12.908 28.2784 15.024C30.3747 15.177 32.2885 14.15 33.8644 12.397V12.396ZM53.2194 14.385H54.2957C55.3355 14.385 55.9436 14.83 55.9436 15.58V15.59C55.9436 16.285 55.3032 16.74 54.327 16.74C53.3299 16.74 52.6948 16.365 52.6103 15.7L52.6051 15.66H51.4558L51.461 15.72C51.5392 16.91 52.652 17.72 54.327 17.72C55.9488 17.72 57.1461 16.83 57.1461 15.64V15.63C57.1461 14.66 56.5214 13.975 55.5087 13.855V13.815C56.3482 13.63 56.9156 12.96 56.9156 12.16V12.15C56.9156 11.035 55.8758 10.265 54.3531 10.265C52.7678 10.265 51.7342 11.01 51.655 12.23L51.6498 12.3H52.7782L52.7834 12.23C52.8731 11.61 53.4238 11.245 54.3166 11.245C55.2239 11.245 55.7496 11.63 55.7496 12.27V12.28C55.7496 12.97 55.1666 13.445 54.2644 13.445H53.2194V14.385ZM60.9487 17.695C61.6829 17.695 62.318 17.335 62.6382 16.77H62.6653V17.6H63.799V13.975C63.799 12.92 62.9438 12.24 61.5942 12.24C60.2342 12.24 59.4103 12.935 59.331 13.84L59.3258 13.895H60.3969L60.4074 13.85C60.5012 13.43 60.9059 13.135 61.5629 13.135C62.2659 13.135 62.6643 13.485 62.6643 14.065V14.46L61.1583 14.545C59.8515 14.62 59.1058 15.18 59.1058 16.095V16.105C59.1058 17.05 59.8463 17.695 60.9487 17.695ZM60.2499 16.08V16.07C60.2499 15.625 60.6285 15.34 61.3106 15.3L62.6643 15.22V15.63C62.6643 16.315 62.0563 16.83 61.2584 16.83C60.6493 16.83 60.2499 16.54 60.2499 16.08ZM69.8377 13.2V12.34H66.178V17.6H67.3117V13.2H69.8377ZM71.9694 19.35H73.1042V16.715H73.1302C73.4557 17.325 74.0898 17.705 74.872 17.705C76.2591 17.705 77.1664 16.65 77.1664 14.975V14.97C77.1664 13.29 76.2643 12.24 74.8574 12.24C74.0699 12.24 73.4598 12.62 73.1302 13.245H73.1042V12.34H71.9694V19.35ZM74.5632 16.775C73.708 16.775 73.099 16.065 73.099 14.975V14.97C73.099 13.875 73.7018 13.165 74.5632 13.165C75.456 13.165 76.013 13.85 76.013 14.97V14.975C76.013 16.085 75.456 16.775 74.5632 16.775ZM79.8301 19.355C80.9117 19.355 81.4884 18.935 81.8983 17.845L83.956 12.34H82.7587L81.3674 16.62H81.3309L79.9396 12.34H78.7121L80.7218 17.605L80.628 17.855C80.4392 18.365 80.1451 18.5 79.609 18.5C79.4567 18.5 79.3264 18.48 79.2367 18.46V19.305C79.3723 19.33 79.609 19.355 79.8301 19.355ZM87.8525 17.705C89.2072 17.705 90.1052 17.05 90.1052 16.07V16.06C90.1052 15.445 89.7058 15.025 88.9757 14.885V14.845C89.5691 14.715 89.9529 14.27 89.9529 13.705V13.695C89.9529 12.795 89.176 12.24 87.9056 12.24C86.6614 12.24 85.8469 12.8 85.7155 13.735L85.7102 13.775H86.7918L86.797 13.74C86.8815 13.34 87.2966 13.095 87.889 13.095C88.4876 13.095 88.8443 13.36 88.8443 13.81V13.82C88.8443 14.29 88.5033 14.53 87.8368 14.53H87.0442V15.315H87.842C88.6086 15.315 88.9757 15.555 88.9757 16.06V16.07C88.9757 16.55 88.546 16.845 87.8472 16.845C87.2225 16.845 86.8126 16.615 86.6875 16.19L86.6718 16.14H85.559L85.5642 16.185C85.6737 17.115 86.5613 17.705 87.8525 17.705ZM92.285 17.6H93.403L95.9374 13.905H95.9853V17.6H97.1138V12.34H95.9958L93.4614 16.02H93.4082V12.34H92.285V17.6ZM103.715 12.34H99.1215V13.2H100.848V17.6H101.987V13.2H103.715V12.34ZM107.978 17.705C109.317 17.705 110.173 16.945 110.346 16.11L110.361 16.055H109.28L109.264 16.095C109.122 16.49 108.677 16.82 108.004 16.82C107.102 16.82 106.53 16.24 106.509 15.245H110.42V14.88C110.42 13.3 109.47 12.24 107.921 12.24C106.372 12.24 105.375 13.34 105.375 14.985V14.99C105.375 16.65 106.356 17.705 107.978 17.705ZM107.926 13.125C108.667 13.125 109.207 13.57 109.296 14.48H106.524C106.63 13.6 107.191 13.125 107.926 13.125ZM115.945 17.6H118.486C119.682 17.6 120.428 17.01 120.428 16.09V16.08C120.428 15.435 119.955 14.965 119.242 14.875V14.835C119.772 14.74 120.182 14.245 120.182 13.7V13.69C120.182 12.855 119.53 12.34 118.455 12.34H115.945V17.6ZM117.068 14.51V13.14H118.218C118.764 13.14 119.057 13.375 119.057 13.81V13.82C119.057 14.285 118.742 14.51 118.102 14.51H117.068ZM117.068 16.8V15.295H118.145C118.889 15.295 119.263 15.53 119.263 16.035V16.045C119.263 16.545 118.916 16.8 118.275 16.8H117.068ZM62.0719 34.735H59.8473L58.6291 31.072H54.3948L53.2329 34.735H51.0678L55.2636 22.263H57.8553L62.0719 34.735ZM58.262 29.535L57.1596 26.278C57.0439 25.945 56.8259 25.162 56.5026 23.928H56.4629C56.2677 24.7139 56.0616 25.4973 55.8445 26.278L54.7619 29.535H58.262ZM72.8622 30.128C72.8622 31.658 72.4304 32.867 71.5669 33.754C70.793 34.544 69.8325 34.939 68.6852 34.939C67.4472 34.939 66.5576 34.513 66.0153 33.662H65.9767V38.4H63.8887V28.703C63.8887 27.741 63.8626 26.754 63.8115 25.742H65.6471L65.7639 27.167H65.8036C66.5002 26.093 67.5568 25.557 68.9752 25.557C70.0838 25.557 71.0089 25.977 71.7494 26.815C72.492 27.655 72.8622 28.759 72.8622 30.128ZM70.7346 30.201C70.7346 29.326 70.5291 28.604 70.1161 28.036C69.6645 27.444 69.0586 27.148 68.2983 27.148C67.7831 27.148 67.3148 27.313 66.8966 27.638C66.4778 27.9647 66.1878 28.4187 66.0747 28.925C66.0101 29.172 65.9777 29.375 65.9777 29.534V31.034C65.9777 31.688 66.1874 32.24 66.6066 32.69C67.0259 33.141 67.5703 33.366 68.2409 33.366C69.0273 33.366 69.6385 33.076 70.0765 32.496C70.5156 31.916 70.7346 31.151 70.7346 30.201ZM83.6734 30.128C83.6734 31.658 83.2416 32.867 82.377 33.754C81.6042 34.544 80.6426 34.939 79.4964 34.939C78.2574 34.939 77.3688 34.513 76.8275 33.662H76.7889V38.4H74.7009V28.703C74.7009 27.741 74.6738 26.754 74.6227 25.742H76.4593L76.5761 27.167H76.6158C77.3104 26.093 78.3679 25.557 79.7863 25.557C80.895 25.557 81.8201 25.977 82.5626 26.815C83.3031 27.655 83.6734 28.759 83.6734 30.128ZM81.5458 30.201C81.5458 29.326 81.3393 28.604 80.9263 28.036C80.4747 27.444 79.8698 27.148 79.1094 27.148C78.5932 27.148 78.126 27.313 77.7067 27.638C77.2881 27.9648 76.9986 28.4188 76.8859 28.925C76.8223 29.172 76.7889 29.375 76.7889 29.534V31.034C76.7889 31.688 76.9975 32.24 77.4147 32.69C77.835 33.14 78.3794 33.366 79.0521 33.366C79.8374 33.366 80.4496 33.076 80.8877 32.496C81.3257 31.916 81.5458 31.151 81.5458 30.201ZM95.7601 31.238C95.7601 32.298 95.3752 33.162 94.6024 33.828C93.7534 34.557 92.5707 34.92 91.0522 34.92C89.6495 34.92 88.5252 34.661 87.6731 34.143L88.158 32.478C89.0748 33.008 90.0802 33.274 91.1763 33.274C91.9627 33.274 92.5749 33.104 93.015 32.764C93.4531 32.425 93.6711 31.97 93.6711 31.402C93.6711 30.896 93.4906 30.469 93.1287 30.123C92.7699 29.778 92.1692 29.456 91.3307 29.159C89.0487 28.345 87.9088 27.151 87.9088 25.583C87.9088 24.557 88.3082 23.717 89.1082 23.063C89.906 22.407 90.9698 22.08 92.2996 22.08C93.4854 22.08 94.471 22.278 95.2574 22.672L94.7359 24.302C94.0006 23.919 93.1704 23.728 92.2412 23.728C91.5059 23.728 90.9323 23.901 90.5203 24.246C90.3536 24.3872 90.2207 24.5612 90.1307 24.7563C90.0407 24.9513 89.9957 25.1627 89.9988 25.376C89.9988 25.868 90.197 26.276 90.5975 26.596C90.9448 26.893 91.5779 27.213 92.4936 27.559C93.6147 27.991 94.4387 28.496 94.9685 29.076C95.4962 29.653 95.7601 30.376 95.7601 31.238ZM102.664 27.241H100.363V31.608C100.363 32.718 100.768 33.274 101.581 33.274C101.954 33.274 102.264 33.243 102.509 33.181L102.566 34.698C102.154 34.845 101.613 34.919 100.942 34.919C100.117 34.919 99.4729 34.679 99.0078 34.198C98.5447 33.716 98.3111 32.908 98.3111 31.773V27.24H96.9396V25.74H98.3111V24.093L100.363 23.501V25.741H102.664V27.241ZM113.049 30.165C113.049 31.547 112.636 32.682 111.811 33.57C110.946 34.483 109.799 34.939 108.367 34.939C106.988 34.939 105.89 34.501 105.071 33.626C104.253 32.75 103.844 31.646 103.844 30.314C103.844 28.92 104.264 27.778 105.11 26.891C105.953 26.002 107.092 25.558 108.523 25.558C109.901 25.558 111.011 25.996 111.849 26.872C112.65 27.722 113.049 28.82 113.049 30.165ZM110.883 30.229C110.883 29.399 110.698 28.689 110.323 28.095C109.885 27.377 109.259 27.019 108.447 27.019C107.609 27.019 106.971 27.379 106.533 28.095C106.158 28.689 105.973 29.412 105.973 30.267C105.973 31.097 106.158 31.807 106.533 32.4C106.984 33.118 107.615 33.476 108.43 33.476C109.227 33.476 109.852 33.11 110.304 32.381C110.689 31.777 110.883 31.058 110.883 30.229ZM119.837 27.5C119.62 27.4622 119.399 27.4434 119.178 27.444C118.444 27.444 117.876 27.709 117.476 28.24C117.129 28.71 116.955 29.301 116.955 30.017V34.736H114.867L114.887 28.574C114.887 27.537 114.861 26.594 114.808 25.743H116.627L116.703 27.463H116.762C116.982 26.873 117.329 26.396 117.806 26.039C118.242 25.7268 118.771 25.5578 119.315 25.557C119.508 25.557 119.682 25.57 119.837 25.594V27.5ZM129.176 29.813C129.176 30.171 129.151 30.473 129.099 30.72H122.835C122.859 31.608 123.161 32.288 123.743 32.756C124.271 33.175 124.954 33.385 125.793 33.385C126.72 33.385 127.567 33.243 128.327 32.96L128.655 34.347C127.765 34.717 126.716 34.902 125.504 34.902C124.046 34.902 122.903 34.492 122.069 33.672C121.239 32.852 120.823 31.75 120.823 30.369C120.823 29.013 121.21 27.883 121.985 26.983C122.795 26.021 123.891 25.54 125.27 25.54C126.625 25.54 127.65 26.021 128.347 26.983C128.899 27.747 129.176 28.691 129.176 29.813ZM127.184 29.295C127.199 28.703 127.062 28.191 126.779 27.759C126.417 27.203 125.863 26.926 125.115 26.926C124.432 26.926 123.877 27.196 123.452 27.74C123.105 28.172 122.899 28.69 122.835 29.294L127.184 29.295Z" fill="black"/>
</svg>
