<svg width="170" height="48" viewBox="0 0 170 48" fill="none" xmlns="http://www.w3.org/2000/svg">
<mask id="mask0_31_256" style="mask-type:luminance" maskUnits="userSpaceOnUse" x="0" y="0" width="170" height="48">
<path d="M0 0H170V48H0V0Z" fill="white"/>
</mask>
<g mask="url(#mask0_31_256)">
<path d="M1 6.4C1 3.46263 3.51367 1 6.71969 1H163.28C166.486 1 169 3.46263 169 6.4V41.6C169 44.5374 166.486 47 163.28 47H6.71969C3.51367 47 1 44.5374 1 41.6V6.4Z" fill="white" stroke="black" stroke-width="2"/>
<path fill-rule="evenodd" clip-rule="evenodd" d="M21.2187 8.80005C14.6617 8.80005 12.264 11.084 12.264 17.328V30.672C12.264 36.916 14.6627 39.2 21.2187 39.2H35.2213C41.7783 39.2 44.1802 36.916 44.1802 30.672V17.328C44.1802 11.084 41.7824 8.80005 35.2255 8.80005H21.2187Z" fill="url(#paint0_linear_31_256)"/>
<path fill-rule="evenodd" clip-rule="evenodd" d="M26.1863 26.4309H27.467L26.8245 25.0069L26.1863 26.4309ZM25.8702 27.1489L25.4906 27.9769H24.625L26.4647 23.9999H27.2136L29.046 27.9769H28.1574L27.782 27.1489H25.8702ZM39.7977 27.9749H40.6342V23.9999H39.7977V27.9749ZM36.4686 26.2669H38.0101V25.5429H36.4686V24.7279H38.7068V24.0029H35.6322V27.9769H38.7871V27.2519H36.4686V26.2669ZM33.1448 26.7369L32.1957 23.9999H31.5042L30.5552 26.7369L29.6332 24.0019H28.73L30.187 27.9799H30.8889L31.838 25.3669L32.7881 27.9799H33.4963L34.9491 24.0019H34.0699L33.1448 26.7369ZM23.3474 26.2779C23.3474 26.9249 23.0105 27.2709 22.3983 27.2709C21.7819 27.2709 21.4429 26.9149 21.4429 26.2509V24.0029H20.595V26.2779C20.595 27.3979 21.2479 28.0389 22.3868 28.0389C23.5361 28.0389 24.1942 27.3849 24.1942 26.2449V23.9999H23.3474V26.2779ZM18.5728 23.9999H19.4196V27.9799H18.5717V26.3639H16.6579V27.9799H15.81V23.9999H16.6579V25.6049H18.5728V23.9999ZM28.2221 18.9329C25.2893 18.9329 22.9031 16.6599 22.9031 13.8669H23.654C23.654 16.2659 25.7034 18.2169 28.2221 18.2169C30.7408 18.2169 32.7902 16.2659 32.7902 13.8669H33.5411C33.5411 16.6599 31.1559 18.9329 28.2221 18.9329Z" fill="white"/>
<path d="M61.2229 35.84L59.7858 32.034H54.2832L52.8752 35.84H50.3951L55.7798 22.077H58.3381L63.7239 35.84H61.2229ZM59.1652 30.102L57.8167 26.372C57.5249 25.5954 57.2688 24.807 57.0491 24.009C56.8718 24.777 56.6131 25.619 56.2721 26.531L54.9726 30.102H59.1652ZM70.5959 36.027C69.2182 36.027 68.1481 35.556 67.3867 34.612H67.2491C67.3409 35.487 67.3867 36.018 67.3867 36.206V40.452H65.0735V25.472H66.9435C66.9956 25.665 67.1051 26.127 67.2689 26.859H67.3867C68.1085 25.809 69.191 25.284 70.6355 25.284C71.9934 25.284 73.0499 25.752 73.804 26.69C74.5653 27.627 74.946 28.943 74.946 30.637C74.946 32.331 74.5591 33.652 73.7842 34.602C73.0166 35.552 71.9538 36.027 70.5959 36.027ZM70.0348 27.084C69.1159 27.084 68.4432 27.34 68.0167 27.852C67.5974 28.365 67.3867 29.184 67.3867 30.309V30.637C67.3867 31.899 67.5974 32.815 68.0167 33.384C68.437 33.946 69.1222 34.227 70.0744 34.227C70.8743 34.227 71.4918 33.915 71.9246 33.29C72.3574 32.665 72.5743 31.774 72.5743 30.618C72.5743 29.456 72.3574 28.578 71.9246 27.984C71.497 27.384 70.8681 27.084 70.0348 27.084ZM82.8526 36.027C81.4748 36.027 80.4048 35.556 79.6445 34.612H79.5058C79.5975 35.487 79.6445 36.018 79.6445 36.206V40.452H77.3312V25.472H79.2012C79.2534 25.665 79.3618 26.127 79.5256 26.859H79.6445C80.3662 25.809 81.4488 25.284 82.8922 25.284C84.2501 25.284 85.3066 25.752 86.0617 26.69C86.8231 27.627 87.2027 28.943 87.2027 30.637C87.2027 32.331 86.8168 33.652 86.0419 34.602C85.2743 35.552 84.2115 36.027 82.8526 36.027ZM82.2915 27.084C81.3737 27.084 80.6999 27.34 80.2744 27.852C79.8541 28.365 79.6445 29.184 79.6445 30.309V30.637C79.6445 31.899 79.8531 32.815 80.2744 33.384C80.6937 33.946 81.3799 34.227 82.3311 34.227C83.131 34.227 83.7485 33.915 84.1813 33.29C84.6141 32.665 84.831 31.774 84.831 30.618C84.831 29.456 84.6151 28.578 84.1813 27.984C83.7547 27.384 83.1248 27.084 82.2915 27.084ZM95.7204 28.406H101.015V35.286C100.15 35.556 99.3154 35.746 98.5155 35.859C97.6612 35.9752 96.7992 36.0314 95.9363 36.027C93.7576 36.027 92.0774 35.415 90.8968 34.19C89.7162 32.959 89.1259 31.224 89.1259 28.987C89.1259 26.781 89.7913 25.056 91.1231 23.812C92.456 22.562 94.2895 21.937 96.6257 21.937C98.1275 21.937 99.5522 22.212 100.898 22.762L100.071 24.627C98.9024 24.115 97.7343 23.859 96.5662 23.859C95.031 23.859 93.817 24.319 92.9243 25.237C92.0326 26.156 91.5862 27.412 91.5862 29.006C91.5862 30.681 91.9867 31.956 92.7866 32.831C93.5939 33.699 94.7526 34.134 96.2617 34.134C97.083 34.1273 97.9012 34.0361 98.7022 33.862V30.327H95.7194L95.7204 28.406ZM110.743 35.84L110.28 34.396H110.202C109.677 35.027 109.148 35.459 108.616 35.69C108.086 35.915 107.402 36.027 106.569 36.027C105.5 36.027 104.664 35.752 104.06 35.202C103.462 34.652 103.164 33.874 103.164 32.868C103.164 31.799 103.581 30.993 104.414 30.449C105.248 29.906 106.517 29.609 108.223 29.559L110.104 29.502V28.949C110.104 28.287 109.939 27.793 109.611 27.469C109.289 27.137 108.787 26.971 108.105 26.971C107.547 26.971 107.012 27.049 106.5 27.206C105.989 27.362 105.497 27.546 105.025 27.759L104.276 26.184C104.889 25.882 105.542 25.6581 106.216 25.518C106.867 25.3677 107.534 25.2892 108.203 25.284C109.588 25.284 110.631 25.571 111.333 26.146C112.043 26.721 112.396 27.624 112.396 28.856V35.84H110.743ZM107.298 34.34C108.138 34.34 108.81 34.118 109.316 33.674C109.827 33.224 110.084 32.596 110.084 31.79V30.89L108.686 30.946C107.596 30.984 106.803 31.159 106.304 31.471C105.812 31.777 105.566 32.249 105.566 32.887C105.566 33.349 105.71 33.709 105.999 33.965C106.288 34.215 106.72 34.34 107.298 34.34ZM117.636 35.84H115.323V21.252H117.636V35.84ZM122.963 35.84H120.65V21.252H122.963V35.84ZM130.732 36.027C129.039 36.027 127.714 35.559 126.755 34.621C125.804 33.677 125.329 32.381 125.329 30.731C125.329 29.037 125.772 27.706 126.657 26.737C127.543 25.768 128.76 25.284 130.309 25.284C131.746 25.284 132.882 25.699 133.715 26.531C134.548 27.361 134.964 28.506 134.964 29.961V31.152H127.711C127.743 32.159 128.029 32.934 128.567 33.477C129.105 34.015 129.862 34.284 130.841 34.284C131.442 34.2875 132.043 34.2305 132.632 34.114C133.247 33.977 133.847 33.7827 134.423 33.534V35.324C133.879 35.5741 133.303 35.7569 132.711 35.868C132.133 35.974 131.474 36.027 130.732 36.027ZM130.309 26.952C129.574 26.952 128.983 27.174 128.537 27.618C128.098 28.062 127.835 28.708 127.75 29.558H132.691C132.678 28.702 132.461 28.056 132.041 27.618C131.622 27.174 131.044 26.952 130.309 26.952ZM142.813 25.284C143.278 25.284 143.661 25.314 143.964 25.377L143.738 27.431C143.402 27.355 143.058 27.3171 142.713 27.318C141.788 27.318 141.037 27.606 140.46 28.181C139.889 28.756 139.603 29.502 139.603 30.421V35.84H137.29V25.47H139.102L139.406 27.298H139.524C139.861 26.7043 140.344 26.1989 140.932 25.826C141.489 25.4714 142.144 25.2835 142.813 25.284ZM144.035 25.471H146.555L148.77 31.349C149.105 32.187 149.328 32.974 149.439 33.712H149.518C149.577 33.368 149.686 32.952 149.843 32.465C150 31.971 150.834 29.64 152.343 25.471H154.843L150.187 37.218C149.34 39.374 147.93 40.452 145.955 40.452C145.443 40.452 144.944 40.399 144.458 40.293V38.55C144.807 38.625 145.203 38.663 145.649 38.663C146.765 38.663 147.55 38.047 148.002 36.816L148.406 35.841L144.035 25.471ZM57.7332 13.524C57.7332 14.64 57.4402 15.507 56.853 16.126C56.2689 16.744 55.4398 17.054 54.3677 17.054C53.2809 17.054 52.4466 16.748 51.8625 16.135C51.2816 15.519 50.9916 14.645 50.9916 13.515C50.9916 12.383 51.2837 11.515 51.8677 10.908C52.4549 10.302 53.2913 9.99895 54.377 9.99895C55.4471 9.99895 56.2731 10.307 56.8572 10.922C57.4412 11.538 57.7332 12.405 57.7332 13.524ZM52.2411 13.524C52.2411 14.368 52.4205 15.008 52.7772 15.446C53.1349 15.88 53.6658 16.098 54.3677 16.098C55.0664 16.098 55.5931 15.882 55.9467 15.451C56.3044 15.019 56.4838 14.377 56.4838 13.524C56.4838 12.684 56.3065 12.046 55.9519 11.612C55.6004 11.177 55.0758 10.96 54.377 10.96C53.672 10.96 53.1391 11.177 52.7782 11.612C52.4205 12.046 52.2411 12.683 52.2411 13.524ZM61.7642 16.96H60.5878V11.068H58.4716V10.107H63.8804V11.067H61.7642V16.96ZM70.5093 16.96H69.1264L66.1644 13.487V16.96H64.988V10.107H66.1644V13.426L69.0774 10.106H70.3664L67.4629 13.416L70.5093 16.96ZM76.2288 12.179C76.2288 12.894 75.9816 13.443 75.4904 13.824C74.9982 14.205 74.2973 14.396 73.3889 14.396H72.6401V16.96H71.4647V10.107H73.5359C74.435 10.107 75.1077 10.282 75.554 10.632C76.0025 10.982 76.2288 11.498 76.2288 12.179ZM72.6411 13.454H73.2658C73.8697 13.454 74.3119 13.354 74.5945 13.154C74.8761 12.954 75.018 12.641 75.018 12.216C75.018 11.823 74.8918 11.529 74.6383 11.335C74.3859 11.141 73.9917 11.045 73.4577 11.045H72.6401L72.6411 13.454ZM84.053 13.524C84.053 14.64 83.7599 15.507 83.1728 16.126C82.5887 16.744 81.7596 17.054 80.6874 17.054C79.6007 17.054 78.7663 16.748 78.1823 16.135C77.6013 15.519 77.3114 14.645 77.3114 13.515C77.3114 12.383 77.6034 11.515 78.1875 10.908C78.7747 10.302 79.6111 9.99895 80.6968 9.99895C81.7669 9.99895 82.5929 10.307 83.1769 10.922C83.761 11.538 84.053 12.405 84.053 13.524ZM78.5608 13.524C78.5608 14.368 78.7402 15.008 79.098 15.446C79.4547 15.88 79.9845 16.098 80.6874 16.098C81.3862 16.098 81.9129 15.882 82.2664 15.451C82.6242 15.019 82.8035 14.377 82.8035 13.524C82.8035 12.684 82.6263 12.046 82.2716 11.612C81.9202 11.177 81.3956 10.96 80.6968 10.96C79.9918 10.96 79.4578 11.177 79.098 11.612C78.7402 12.046 78.5608 12.683 78.5608 13.524ZM85.5986 10.107H86.676V13.669C86.676 14.041 86.6656 14.418 86.6468 14.799C86.627 15.177 86.6124 15.433 86.603 15.568H86.6468L90.3232 10.107H91.6967V16.96H90.6131V13.426C90.6131 12.885 90.6444 12.229 90.707 11.456H90.6674L86.9764 16.96H85.5986V10.107ZM88.6847 9.55795C87.9891 9.55795 87.478 9.43995 87.1537 9.20195C86.8324 8.96195 86.6531 8.56195 86.6176 8.00195H87.6658C87.6856 8.22695 87.7294 8.40195 87.7982 8.52695C87.8712 8.65195 87.9724 8.74295 88.1038 8.79895C88.2383 8.85195 88.4417 8.87895 88.7139 8.87895C89.0351 8.87895 89.2802 8.81195 89.4471 8.67695C89.614 8.53995 89.7162 8.31495 89.7527 8.00195H90.8207C90.7706 8.53995 90.5724 8.93295 90.2251 9.18295C89.8768 9.43295 89.3637 9.55795 88.6847 9.55795ZM96.0656 16.96H94.8902V11.068H92.7731V10.107H98.1828V11.067H96.0656V16.96ZM103.36 16.96H99.2904V10.107H103.36V11.054H100.466V12.919H103.177V13.857H100.466V16.008H103.36V16.96ZM107.538 10.107H109.674C110.665 10.107 111.38 10.244 111.82 10.519C112.263 10.794 112.485 11.229 112.485 11.822C112.485 12.222 112.376 12.555 112.159 12.821C111.943 13.087 111.632 13.254 111.225 13.323V13.369C111.73 13.46 112.101 13.639 112.337 13.909C112.576 14.174 112.695 14.535 112.695 14.991C112.695 15.607 112.469 16.09 112.016 16.44C111.567 16.787 110.94 16.96 110.137 16.96H107.538V10.107ZM108.714 12.938H109.846C110.338 12.938 110.698 12.865 110.924 12.718C111.151 12.568 111.263 12.315 111.263 11.958C111.263 11.637 111.14 11.404 110.894 11.26C110.652 11.116 110.264 11.044 109.733 11.044H108.714V12.938ZM108.714 13.848V16.018H109.965C110.456 16.018 110.827 15.928 111.077 15.751C111.329 15.569 111.455 15.285 111.455 14.898C111.455 14.541 111.328 14.278 111.072 14.105C110.816 13.933 110.427 13.847 109.906 13.847L108.714 13.848Z" fill="black"/>
</g>
<defs>
<linearGradient id="paint0_linear_31_256" x1="28.2221" y1="8.80005" x2="28.2221" y2="39.2" gradientUnits="userSpaceOnUse">
<stop stop-color="#FB6361"/>
<stop offset="1" stop-color="#ED3E45"/>
</linearGradient>
</defs>
</svg>
