<svg width="170" height="48" viewBox="0 0 170 48" fill="none" xmlns="http://www.w3.org/2000/svg">
<mask id="mask0_31_265" style="mask-type:luminance" maskUnits="userSpaceOnUse" x="0" y="0" width="170" height="48">
<path d="M0 0H170V48H0V0Z" fill="white"/>
</mask>
<g mask="url(#mask0_31_265)">
<mask id="mask1_31_265" style="mask-type:luminance" maskUnits="userSpaceOnUse" x="0" y="0" width="170" height="55">
<path d="M0 0H170V54.333H0V0Z" fill="white"/>
</mask>
<g mask="url(#mask1_31_265)">
<path d="M1 5.538C1 3.18156 3.31768 1 6.53926 1H163.461C166.682 1 169 3.18156 169 5.538V42.461C169 44.8195 166.682 47 163.462 47H6.53822C3.31779 47 1 44.8185 1 42.462V5.538Z" fill="white" stroke="black" stroke-width="2"/>
<mask id="mask2_31_265" style="mask-type:luminance" maskUnits="userSpaceOnUse" x="11" y="8" width="34" height="33">
<path fill-rule="evenodd" clip-rule="evenodd" d="M11.9876 8.80005H44.6672V40.134H11.9876V8.80005Z" fill="white"/>
</mask>
<g mask="url(#mask2_31_265)">
<path fill-rule="evenodd" clip-rule="evenodd" d="M28.3223 8.80005C21.7872 8.80105 17.7019 9.58505 15.251 11.9361C12.8011 14.2861 11.9845 18.2031 11.9866 24.4701C11.9876 30.7371 12.8053 34.6541 15.2573 37.0031C17.7082 39.3531 21.7934 40.1351 28.3296 40.1341C34.8657 40.1331 38.9509 39.3491 41.4008 36.9981C43.8517 34.6481 44.6673 30.7301 44.6652 24.4641C44.6652 18.1971 43.8465 14.2801 41.3956 11.9311C38.9436 9.58005 34.8584 8.79805 28.3223 8.80005Z" fill="#6547CE"/>
<path fill-rule="evenodd" clip-rule="evenodd" d="M37.0318 16.1211C33.5495 12.7841 30.939 11.1161 28.3274 11.1161C25.7159 11.1161 23.1054 12.7861 19.6251 16.1261C16.1437 19.4641 14.4031 21.9671 14.4041 24.4711C14.4041 26.9741 16.1458 29.4771 19.6282 32.8151C23.1106 36.1521 25.7222 37.8211 28.3337 37.8201C30.9442 37.8201 33.5547 36.1501 37.035 32.8101C40.5163 29.4721 42.256 26.9681 42.256 24.4641C42.256 21.9611 40.5142 19.4591 37.0318 16.1211Z" fill="#3AEEB8"/>
<path fill-rule="evenodd" clip-rule="evenodd" d="M28.3264 15.5341C24.5999 15.5341 22.271 15.9821 20.8735 17.3221C19.476 18.6621 19.0118 20.8961 19.0118 24.4691C19.0118 28.0421 19.4791 30.2751 20.8766 31.6151C22.2742 32.9551 24.6041 33.4001 28.3306 33.4001C32.057 33.3991 34.3859 32.9521 35.7834 31.6111C37.181 30.2711 37.6451 28.0381 37.6441 24.4651C37.6441 20.8921 37.1779 18.6591 35.7793 17.3191C34.3817 15.9791 32.0528 15.5341 28.3264 15.5341Z" fill="#6547CE"/>
<path fill-rule="evenodd" clip-rule="evenodd" d="M33.6016 19.408C31.4907 17.385 29.9075 16.373 28.3253 16.374C26.7432 16.374 25.161 17.386 23.0512 19.41C20.9413 21.433 19.8858 22.951 19.8869 24.468C19.8869 25.986 20.9423 27.503 23.0533 29.526C25.1642 31.549 26.7463 32.56 28.3295 32.56C29.9117 32.56 31.4938 31.547 33.6037 29.524C35.7136 27.5 36.768 25.982 36.768 24.465C36.7669 22.948 35.7125 21.431 33.6016 19.408Z" fill="#3AEEB8"/>
<path fill-rule="evenodd" clip-rule="evenodd" d="M32.0122 20.9341C30.5374 19.5211 29.433 18.8141 28.3264 18.8151C27.2209 18.8151 26.1153 19.5221 24.6427 20.9361C23.169 22.3501 22.4317 23.4091 22.4327 24.4701C22.4327 25.5301 23.1701 26.5891 24.6448 28.0021C26.1195 29.4151 27.224 30.1221 28.3306 30.1211C29.4361 30.1201 30.5406 29.4131 32.0142 28.0001C33.4879 26.5861 34.2242 25.5271 34.2232 24.4661C34.2232 23.4061 33.4858 22.3471 32.0122 20.9341Z" fill="#7D5EE9"/>
<path fill-rule="evenodd" clip-rule="evenodd" d="M32.0132 20.932C30.5385 19.518 29.4319 18.811 28.3264 18.812C27.2198 18.812 26.1133 19.518 24.6396 20.934C23.1648 22.349 22.4275 23.409 22.4285 24.469C22.4285 25.529 23.1648 26.59 24.6417 28.004C26.1174 29.418 27.2229 30.125 28.3285 30.124C29.434 30.124 30.5406 29.418 32.0153 28.002C33.49 26.587 34.2274 25.527 34.2263 24.467C34.2263 23.407 33.4879 22.346 32.0132 20.932Z" fill="#6547CE"/>
<path fill-rule="evenodd" clip-rule="evenodd" d="M28.3264 21.5751C27.1197 21.5751 26.3656 21.7201 25.913 22.1551C25.4614 22.5881 25.3102 23.3111 25.3102 24.4681C25.3102 25.6251 25.4614 26.3481 25.9151 26.7811C26.3667 27.2151 27.1207 27.3601 28.3274 27.3591C29.5341 27.3591 30.2882 27.2141 30.7398 26.7801C31.1924 26.3461 31.3436 25.6241 31.3426 24.4661C31.3426 23.3091 31.1913 22.5861 30.7387 22.1531C30.2861 21.7201 29.5331 21.5751 28.3264 21.5751Z" fill="#F0EDFF"/>
</g>
<path fill-rule="evenodd" clip-rule="evenodd" d="M56.3461 24.006L51.3953 36.976H53.9849L55.0904 33.975H60.3708L61.4555 36.976H64.0858L59.136 24.006H56.3461ZM59.694 32.124H55.7662L57.7207 26.729L59.6961 32.124H59.694ZM65.1569 27.787V41.05L67.6287 41.056V35.72C67.9666 36.19 68.4088 36.553 68.947 36.811C69.4924 37.069 70.1213 37.201 70.8451 37.201C71.7431 37.201 72.5514 37.003 73.2627 36.593C73.9687 36.1737 74.5491 35.5859 74.947 34.887C75.3611 34.154 75.5686 33.334 75.5686 32.402C75.5686 31.47 75.3621 30.643 74.947 29.916C74.5555 29.2077 73.9741 28.6122 73.2627 28.191C72.5587 27.774 71.7504 27.563 70.8462 27.563C70.0306 27.563 69.3683 27.715 68.85 28.025C68.3462 28.336 67.9385 28.693 67.6277 29.103L67.3586 27.787H65.1569ZM72.275 34.365C71.7577 34.875 71.108 35.125 70.3216 35.125C69.5196 35.125 68.8646 34.868 68.3462 34.365C67.8425 33.843 67.5943 33.182 67.5943 32.382C67.5943 31.582 67.8425 30.928 68.3462 30.419C68.8646 29.896 69.5206 29.639 70.3216 29.639C71.108 29.639 71.7577 29.903 72.275 30.419C72.7934 30.941 73.0489 31.602 73.0489 32.402C73.0489 33.202 72.7934 33.856 72.275 34.365ZM76.8807 41.049V27.787H79.0834L79.3524 29.103C79.6632 28.693 80.071 28.336 80.5748 28.025C81.0921 27.715 81.7554 27.563 82.5699 27.563C83.4752 27.563 84.2824 27.774 84.9864 28.191C85.6982 28.6121 86.28 29.2075 86.6718 29.916C87.0859 30.65 87.2934 31.47 87.2934 32.402C87.2934 33.334 87.0859 34.154 86.6718 34.887C86.2736 35.586 85.6929 36.1739 84.9864 36.593C84.2751 37.003 83.4679 37.201 82.571 37.201C81.8451 37.201 81.2172 37.069 80.6718 36.811C80.1424 36.5617 79.6885 36.1864 79.3535 35.721V41.055L76.8817 41.049H76.8807ZM82.0453 35.125C82.8327 35.125 83.4815 34.875 83.9998 34.365C84.5171 33.856 84.7726 33.202 84.7726 32.402C84.7726 31.602 84.5171 30.941 83.9998 30.419C83.4815 29.903 82.8327 29.639 82.0453 29.639C81.2443 29.639 80.5883 29.896 80.071 30.419C79.5662 30.927 79.318 31.582 79.318 32.382C79.318 33.182 79.5662 33.842 80.071 34.365C80.5883 34.868 81.2443 35.125 82.0453 35.125ZM110.7 37.016V27.794L108.436 27.787L108.228 29.083C107.893 28.6175 107.44 28.2423 106.91 27.993C106.365 27.734 105.736 27.603 105.011 27.603C104.114 27.603 103.306 27.8 102.594 28.21C101.888 28.6291 101.307 29.217 100.909 29.916C100.495 30.65 100.287 31.469 100.287 32.402C100.287 33.334 100.495 34.154 100.909 34.887C101.301 35.5958 101.883 36.1916 102.594 36.613C103.298 37.029 104.107 37.241 105.011 37.241C105.826 37.241 106.488 37.089 107.006 36.778C107.511 36.468 107.918 36.11 108.228 35.7L108.498 37.016H110.7ZM103.582 30.432C104.099 29.922 104.748 29.672 105.536 29.672C106.337 29.672 106.993 29.929 107.511 30.432C108.014 30.954 108.263 31.615 108.263 32.415C108.263 33.215 108.014 33.869 107.511 34.378C106.993 34.901 106.337 35.158 105.536 35.158C104.748 35.158 104.099 34.894 103.582 34.378C103.064 33.856 102.808 33.195 102.808 32.395C102.808 31.595 103.064 30.941 103.582 30.432ZM132.802 27.794V37.016H130.6L130.331 35.7C130.02 36.11 129.612 36.467 129.108 36.778C128.59 37.088 127.928 37.241 127.113 37.241C126.208 37.241 125.401 37.029 124.697 36.613C123.985 36.1916 123.403 35.5958 123.011 34.887C122.597 34.154 122.39 33.334 122.39 32.402C122.39 31.469 122.597 30.65 123.011 29.916C123.409 29.2169 123.99 28.6291 124.697 28.21C125.408 27.8 126.215 27.602 127.113 27.602C127.838 27.602 128.466 27.734 129.011 27.992C129.55 28.25 129.993 28.614 130.331 29.083L130.538 27.787L132.802 27.794ZM127.638 29.671C126.85 29.671 126.202 29.923 125.683 30.431C125.166 30.941 124.91 31.595 124.91 32.395C124.91 33.195 125.166 33.856 125.683 34.378C126.202 34.894 126.85 35.158 127.638 35.158C128.439 35.158 129.095 34.9 129.612 34.378C130.117 33.869 130.365 33.215 130.365 32.415C130.365 31.615 130.117 30.954 129.612 30.432C129.095 29.929 128.439 29.672 127.638 29.672V29.671ZM88.667 24.071V37.042H94.9914C96.4067 37.042 97.5049 36.712 98.2777 36.044C99.0516 35.376 99.4385 34.53 99.4385 33.506C99.4385 32.507 98.7606 30.808 96.1793 30.544V30.234C98.4227 29.764 98.8576 28.224 98.8576 27.41C98.8576 26.432 98.478 25.632 97.7323 25.017C97.0001 24.389 95.9311 24.072 94.5221 24.072H88.667V24.071ZM94.1487 29.519H91.1388L91.1461 25.982H94.1143C94.8464 25.982 95.3992 26.142 95.758 26.465C96.1303 26.769 96.317 27.199 96.317 27.741C96.317 28.31 96.1303 28.68 95.758 28.991C95.3783 29.301 94.8464 29.519 94.1487 29.519ZM94.5972 35.112H91.1534V31.43H94.2947C95.9801 31.43 96.9261 31.939 96.9261 33.241C96.9261 33.83 96.7185 34.299 96.3045 34.629C95.904 34.953 95.3314 35.112 94.5993 35.112H94.5972Z" fill="black"/>
<path d="M112.536 36.97V35.066C112.536 35.066 118.35 32.812 118.35 29.751H112.591V27.788H121.705V28.323C121.705 31.985 117.017 34.041 115.222 34.736C115.236 34.812 115.242 34.841 115.25 34.871C115.257 34.901 115.263 34.931 115.278 35.007H121.802V36.97H112.536ZM134.811 27.787V36.97H137.296V32.785C137.296 32.085 137.407 31.535 137.642 31.139C137.891 30.743 138.223 30.465 138.65 30.306C139.114 30.1408 139.605 30.0601 140.1 30.068H140.798V27.57C139.989 27.57 139.278 27.749 138.671 28.106C138.077 28.4471 137.589 28.9329 137.255 29.514L137.021 27.788L134.811 27.787ZM58.892 16.83H59.8004V19.2H58.9931V17.555H53.8963V19.2H53.089V16.83C53.4457 16.784 53.7283 16.62 53.9369 16.336C54.1455 16.046 54.2728 15.646 54.3207 15.136L54.7139 10.781H58.892V16.83ZM58.0847 16.83V11.508H55.4502L55.1175 15.137C55.0769 15.601 55.0101 15.962 54.9163 16.221C54.8429 16.4585 54.699 16.6705 54.5022 16.831L58.0847 16.83ZM63.0877 17.653C62.6163 17.653 62.1825 17.546 61.7861 17.333C61.3997 17.1174 61.0767 16.8111 60.8475 16.443C60.618 16.063 60.5033 15.643 60.5033 15.185C60.4979 14.7512 60.6141 14.3239 60.8398 13.9478C61.0654 13.5717 61.3923 13.2606 61.7861 13.047C62.1825 12.827 62.6163 12.717 63.0877 12.717C63.5581 12.717 63.9888 12.827 64.3799 13.047C64.7763 13.26 65.0891 13.557 65.3186 13.937C65.5533 14.311 65.6711 14.727 65.6711 15.185C65.6711 15.643 65.5533 16.062 65.3186 16.443C65.0924 16.8165 64.7665 17.1255 64.3744 17.3382C63.9823 17.5509 63.5382 17.6595 63.0877 17.653ZM63.0877 16.975C63.4173 16.975 63.7166 16.898 63.9857 16.743C64.2646 16.5814 64.4943 16.3525 64.6518 16.0791C64.8094 15.8056 64.8894 15.4973 64.8837 15.185C64.8884 14.8665 64.8049 14.5525 64.6417 14.275C64.4862 14.0102 64.2597 13.7899 63.9857 13.637C63.7167 13.4757 63.405 13.3917 63.0877 13.395C62.7582 13.395 62.4557 13.475 62.1804 13.637C61.9104 13.7923 61.6875 14.0126 61.5337 14.276C61.3702 14.5534 61.2863 14.8674 61.2907 15.186C61.286 15.497 61.3654 15.8039 61.5211 16.0767C61.6768 16.3496 61.9036 16.5791 62.1793 16.743C62.4557 16.898 62.7582 16.975 63.0877 16.975ZM69.0096 17.653C68.5528 17.653 68.1283 17.546 67.7382 17.333C67.3579 17.1165 67.0419 16.8101 66.8204 16.443C66.591 16.063 66.4763 15.643 66.4763 15.185C66.4763 14.727 66.591 14.311 66.8204 13.937C67.0488 13.557 67.3544 13.259 67.7382 13.047C68.1234 12.8286 68.5631 12.7145 69.0106 12.717C69.5488 12.717 70.0327 12.86 70.4634 13.143C70.9015 13.427 71.2071 13.818 71.3812 14.314H70.574C70.4333 14.0318 70.2082 13.7961 69.9274 13.637C69.6504 13.4772 69.3329 13.3934 69.0096 13.395C68.6936 13.395 68.4005 13.475 68.1314 13.637C67.8629 13.7909 67.6431 14.0117 67.4952 14.276C67.3419 14.546 67.2637 14.85 67.2637 15.186C67.2637 15.521 67.3419 15.824 67.4963 16.095C67.6506 16.365 67.8623 16.582 68.1325 16.743C68.4015 16.898 68.6936 16.975 69.0096 16.975C69.3391 16.975 69.6458 16.895 69.9274 16.733C70.211 16.573 70.4259 16.346 70.574 16.056H71.3812C71.2211 16.5341 70.8978 16.9466 70.4634 17.227C70.0365 17.5099 69.5285 17.6588 69.0096 17.653ZM74.1565 17.556H73.3993V13.492H71.6837V12.814H75.8722V13.492H74.1565V17.556ZM78.8101 16.404L80.4548 12.814H81.2621L78.1333 19.491H77.326L78.3856 17.217L76.2163 12.814H77.0632L78.8101 16.404ZM82.8734 17.556H82.1163V12.814H86.335V17.556H85.5778V13.492H82.8734V17.556ZM91.3839 14.798V12.814H92.141V17.556H91.3849V15.476H88.6086V17.556H87.8514V12.814H88.6086V14.798H91.3839ZM95.8873 17.653C95.4169 17.653 94.9831 17.546 94.5857 17.333C94.1992 17.1174 93.8762 16.8111 93.6471 16.443C93.4176 16.063 93.3039 15.643 93.3039 15.185C93.2985 14.7512 93.4147 14.3239 93.6404 13.9478C93.866 13.5717 94.1929 13.2606 94.5868 13.047C94.9831 12.827 95.4169 12.717 95.8873 12.717C96.3587 12.717 96.7895 12.827 97.1795 13.047C97.5758 13.26 97.8887 13.557 98.1182 13.937C98.3539 14.311 98.4717 14.727 98.4717 15.185C98.4717 15.643 98.3539 16.062 98.1171 16.443C97.891 16.8164 97.5652 17.1253 97.1733 17.3379C96.7815 17.5506 96.3376 17.6594 95.8873 17.653ZM95.8873 16.975C96.2179 16.975 96.5172 16.898 96.7863 16.743C97.065 16.5813 97.2945 16.3523 97.4519 16.0789C97.6093 15.8055 97.6891 15.4973 97.6833 15.185C97.6883 14.8666 97.6052 14.5526 97.4423 14.275C97.2865 14.01 97.0596 13.7898 96.7853 13.637C96.5165 13.4759 96.2053 13.3919 95.8883 13.395C95.5577 13.395 95.2553 13.475 94.9799 13.637C94.71 13.7923 94.4871 14.0126 94.3333 14.276C94.1701 14.5535 94.0866 14.8675 94.0914 15.186C94.0866 15.497 94.166 15.8039 94.3217 16.0767C94.4774 16.3496 94.7042 16.5791 94.9799 16.743C95.2553 16.898 95.5577 16.975 95.8873 16.975ZM105.537 15.03C105.806 15.12 106.014 15.269 106.162 15.476C106.31 15.682 106.385 15.924 106.385 16.201C106.385 16.601 106.226 16.927 105.91 17.179C105.594 17.43 105.166 17.556 104.628 17.556H102.459V12.814H104.477C104.988 12.814 105.393 12.931 105.688 13.163C105.984 13.395 106.132 13.698 106.132 14.073C106.132 14.266 106.075 14.45 105.961 14.623C105.859 14.7918 105.713 14.9321 105.537 15.03ZM103.216 13.492V14.759H104.447C104.737 14.759 104.958 14.701 105.113 14.585C105.187 14.5301 105.246 14.4596 105.286 14.3791C105.326 14.2986 105.346 14.2102 105.345 14.121C105.346 14.0345 105.326 13.949 105.285 13.8715C105.245 13.7941 105.186 13.7271 105.113 13.676C104.965 13.553 104.753 13.492 104.477 13.492H103.215H103.216ZM104.628 16.879C104.932 16.879 105.166 16.814 105.335 16.685C105.42 16.6231 105.489 16.5424 105.534 16.4498C105.58 16.3571 105.601 16.2553 105.597 16.153C105.602 16.0491 105.581 15.9456 105.535 15.8513C105.49 15.7569 105.421 15.6745 105.335 15.611C105.16 15.481 104.915 15.417 104.598 15.417H103.216V16.879H104.628Z" fill="black"/>
</g>
</g>
</svg>
