<svg width="170" height="48" viewBox="0 0 170 48" fill="none" xmlns="http://www.w3.org/2000/svg">
<mask id="mask0_31_245" style="mask-type:luminance" maskUnits="userSpaceOnUse" x="0" y="0" width="170" height="48">
<path d="M0 0H170V48H0V0Z" fill="white"/>
</mask>
<g mask="url(#mask0_31_245)">
<path d="M1 6.4C1 3.46263 3.51367 1 6.71969 1H163.28C166.486 1 169 3.46263 169 6.4V41.6C169 44.5374 166.486 47 163.28 47H6.71969C3.51367 47 1 44.5374 1 41.6V6.4Z" fill="white" stroke="black" stroke-width="2"/>
<path d="M86.1368 26.0759C83.1123 26.0759 80.6134 28.3259 80.6134 31.4119C80.6134 34.4719 83.0862 36.7479 86.1379 36.7479C89.1895 36.7479 91.6623 34.4979 91.6623 31.4119C91.6623 28.3269 89.1895 26.0769 86.1379 26.0769L86.1368 26.0759ZM86.1368 34.6249C84.4796 34.6249 83.0341 33.2839 83.0341 31.3879C83.0341 29.4659 84.4817 28.1519 86.1379 28.1519C87.7941 28.1519 89.2417 29.4659 89.2417 31.3879C89.2417 33.2839 87.7941 34.6249 86.1379 34.6249H86.1368ZM74.1148 26.0759C71.0631 26.0759 68.5893 28.3259 68.5893 31.4119C68.5893 34.4719 71.0631 36.7479 74.1148 36.7479C77.1665 36.7479 79.6393 34.4979 79.6393 31.4119C79.6393 28.3269 77.1665 26.0759 74.1148 26.0759ZM74.1148 34.6249C72.4565 34.6249 71.011 33.2839 71.011 31.3879C71.011 29.4659 72.4586 28.1519 74.1148 28.1519C75.7731 28.1519 77.2186 29.4659 77.2186 31.3879C77.2186 33.2839 75.7971 34.6249 74.1148 34.6249ZM59.8285 27.7199V29.9699H65.4062C65.2477 31.2339 64.8013 32.1699 64.1442 32.8019C63.3287 33.5859 62.0656 34.4459 59.8285 34.4459C56.3816 34.4459 53.7252 31.7659 53.7252 28.4529C53.7252 25.1399 56.3837 22.4089 59.8285 22.4089C61.6954 22.4089 63.0387 23.1169 64.0389 24.0279L65.6951 22.4339C64.3007 21.1439 62.4328 20.1589 59.8285 20.1589C55.1186 20.1589 51.1721 23.8759 51.1721 28.4029C51.1721 32.9299 55.1186 36.6469 59.8285 36.6469C62.3806 36.6469 64.2756 35.8369 65.8015 34.3189C67.3534 32.8279 67.8269 30.7289 67.8269 29.0339C67.8269 28.5039 67.7747 28.0229 67.6944 27.6179L59.8285 27.7199ZM118.288 29.4639C117.839 28.2749 116.42 26.0749 113.578 26.0749C110.736 26.0749 108.394 28.2249 108.394 31.4109C108.394 34.3949 110.736 36.7469 113.841 36.7469C116.367 36.7469 117.813 35.2549 118.418 34.3949L116.551 33.1809C115.919 34.0669 115.077 34.6479 113.841 34.6479C112.604 34.6479 111.736 34.1169 111.183 33.0279L118.522 30.0699L118.288 29.4639ZM110.815 31.2599C110.763 29.2109 112.473 28.1499 113.682 28.1499C114.656 28.1499 115.445 28.6049 115.735 29.2879L110.815 31.2599ZM104.843 36.3929H107.264V20.7659H104.843V36.3929ZM100.898 27.2639H100.818C100.267 26.6309 99.2404 26.0749 97.9242 26.0749C95.1614 26.0749 92.6625 28.4279 92.6625 31.4109C92.6625 34.3949 95.1885 36.7219 97.9242 36.7219C99.2393 36.7219 100.266 36.1659 100.818 35.5079H100.898V36.2669C100.898 38.3159 99.765 39.4019 97.9502 39.4019C96.4766 39.4019 95.5556 38.3659 95.1885 37.5049L93.0839 38.3649C93.6888 39.7819 95.2949 41.5269 97.9502 41.5269C100.791 41.5269 103.186 39.9079 103.186 35.9889V26.4039H100.898V27.2639ZM98.1349 34.6239C96.4766 34.6239 95.0832 33.2829 95.0832 31.4129C95.0832 29.5429 96.4787 28.1759 98.1349 28.1759C99.7671 28.1759 101.082 29.5419 101.082 31.4129C101.08 33.2579 99.765 34.6239 98.1349 34.6239ZM129.573 20.7649H123.786V36.3929H126.207V30.4749H129.573C132.258 30.4749 134.888 28.6039 134.888 25.6199C134.888 22.6369 132.258 20.7649 129.573 20.7649ZM129.652 28.3019H126.232V22.9399H129.652C131.441 22.9399 132.494 24.3809 132.494 25.6199C132.469 26.8339 131.442 28.3019 129.652 28.3019ZM144.544 26.0499C142.807 26.0499 140.992 26.7839 140.255 28.4529L142.387 29.3129C142.86 28.4529 143.702 28.1749 144.597 28.1749C145.86 28.1749 147.123 28.9079 147.149 30.1969V30.3499C146.702 30.0969 145.782 29.7419 144.624 29.7419C142.309 29.7419 139.966 30.9819 139.966 33.2579C139.966 35.3569 141.861 36.6969 143.965 36.6969C145.597 36.6969 146.491 35.9889 147.043 35.1549H147.122V36.3689H149.462V30.3749C149.436 27.6189 147.307 26.0499 144.544 26.0499ZM144.255 34.5989C143.465 34.5989 142.36 34.2189 142.36 33.2839C142.36 32.0699 143.727 31.6149 144.911 31.6149C145.963 31.6149 146.464 31.8429 147.122 32.1449C147.036 32.8178 146.697 33.4377 146.17 33.8891C145.643 34.3406 144.962 34.5928 144.255 34.5989ZM157.908 26.4049L155.146 33.1569H155.067L152.2 26.4049H149.596L153.91 35.8629L151.464 41.1479H153.989L160.592 26.4049H157.908ZM136.23 36.3929H138.651V20.7659H136.23V36.3929ZM58.4873 13.4409V15.7609H57.4809V14.3999H52.8523V15.7619H51.8458V13.4419H52.5978C52.8491 13.1069 53.0337 12.6259 53.1537 11.9989C53.2726 11.3659 53.332 10.6789 53.332 9.93794V7.98494H57.7437V13.4409H58.4873ZM56.6903 13.4409V8.94294H54.376V10.1079C54.376 10.7779 54.3197 11.3979 54.2071 11.9719C54.1007 12.5449 53.9369 13.0349 53.7169 13.4419H56.6903V13.4409ZM62.7582 14.5429C62.1353 14.5503 61.5216 14.3988 60.9799 14.1039C60.4546 13.8125 60.0197 13.3921 59.7201 12.8859C59.418 12.3687 59.2623 11.7847 59.2685 11.1919C59.2685 10.5769 59.4187 10.0159 59.7201 9.50794C60.0267 8.99394 60.447 8.58794 60.9799 8.28894C61.5197 7.9885 62.1341 7.8337 62.7582 7.84094C63.411 7.84094 63.9993 7.99094 64.527 8.28894C65.0599 8.58794 65.4802 8.99394 65.7879 9.50794C66.0945 10.0159 66.2479 10.5779 66.2479 11.1919C66.2479 11.8079 66.0945 12.3719 65.7879 12.8859C65.4855 13.3999 65.0693 13.8059 64.5364 14.1039C63.9948 14.3991 63.3811 14.55 62.7582 14.5429ZM62.7582 13.5849C63.2035 13.5849 63.6113 13.4829 63.9815 13.2799C64.3476 13.0808 64.6501 12.7897 64.8566 12.4379C65.0742 12.0563 65.1842 11.6268 65.1757 11.1919C65.1848 10.7602 65.0747 10.3338 64.8566 9.95594C64.652 9.60023 64.3488 9.3057 63.9805 9.10494C63.6084 8.90126 63.1866 8.796 62.7582 8.79994C62.3128 8.79994 61.905 8.90194 61.5358 9.10494C61.1667 9.30695 60.8612 9.60057 60.6514 9.95494C60.4327 10.333 60.3223 10.7597 60.3312 11.1919C60.3312 11.6579 60.4376 12.0729 60.6514 12.4379C60.8704 12.7959 61.1656 13.0769 61.5358 13.2799C61.905 13.4829 62.3128 13.5849 62.7582 13.5849ZM70.5396 14.5429C69.9142 14.5494 69.2981 14.398 68.753 14.1039C68.2222 13.8195 67.7828 13.401 67.4827 12.8939C67.1742 12.3759 67.0151 11.7884 67.0217 11.1919C67.0217 10.5719 67.175 10.0039 67.4827 9.48994C67.7829 8.98288 68.2222 8.56439 68.753 8.27994C69.2981 7.98588 69.9142 7.83448 70.5396 7.84094C71.0485 7.84094 71.5095 7.93094 71.9225 8.11094C72.3428 8.28894 72.7131 8.54894 73.0333 8.88994L72.2803 9.57994C72.0707 9.33372 71.8072 9.13468 71.5085 8.99694C71.2057 8.86138 70.8747 8.794 70.5406 8.79994C70.089 8.79994 69.675 8.89894 69.2985 9.09594C68.9283 9.29299 68.6222 9.58441 68.4141 9.93794C68.195 10.2959 68.0845 10.7139 68.0845 11.1919C68.0845 11.6699 68.195 12.0919 68.4141 12.4559C68.6331 12.8139 68.9282 13.0919 69.2985 13.2889C69.6739 13.4859 70.089 13.5849 70.5396 13.5849C71.2926 13.5849 71.9319 13.2859 72.4586 12.6889L73.221 13.3869C72.8983 13.7493 72.4972 14.04 72.0456 14.2389C71.5867 14.4419 71.0861 14.5429 70.5396 14.5429ZM75.7616 8.94294H73.8801V7.98494H78.6964V8.94294H76.815V14.3999H75.7616V8.94294ZM80.4413 14.5429C80.2087 14.5429 80.0116 14.5049 79.8479 14.4269V13.4499C80.0554 13.5579 80.2442 13.6119 80.4131 13.6119C80.5538 13.6183 80.6935 13.5871 80.8168 13.5219C80.9179 13.4559 81.0087 13.3369 81.09 13.1639L81.3247 12.6979L79.0865 7.98494H80.2619L81.8336 11.5419H81.8899L83.47 7.98494H84.6454L82.0683 13.3789C81.8806 13.7789 81.6511 14.0749 81.382 14.2659C81.1082 14.4539 80.7779 14.5512 80.4413 14.5429ZM85.559 7.98494H90.5735V14.3999H89.5201V8.94294H86.6124V14.3999H85.559V7.98494ZM92.1098 7.98494H93.1631V10.6449H96.2857V7.98494H97.3307V14.3999H96.2847V11.5949H93.1621V14.3999H92.1087L92.1098 7.98494ZM101.93 14.5429C101.307 14.5503 100.694 14.3988 100.152 14.1039C99.6265 13.8125 99.1916 13.3921 98.892 12.8859C98.59 12.3687 98.4343 11.7847 98.4404 11.1919C98.4404 10.5769 98.5906 10.0159 98.892 9.50794C99.1987 8.99394 99.619 8.58794 100.152 8.28894C100.692 7.98855 101.306 7.83375 101.93 7.84094C102.582 7.84094 103.171 7.99094 103.699 8.28894C104.225 8.58048 104.66 9.00131 104.959 9.50794C105.267 10.0159 105.42 10.5779 105.42 11.1919C105.426 11.7859 105.267 12.3706 104.959 12.8859C104.658 13.3999 104.241 13.8059 103.707 14.1039C103.166 14.3989 102.553 14.5498 101.93 14.5429ZM101.93 13.5849C102.375 13.5849 102.783 13.4829 103.153 13.2799C103.519 13.0806 103.821 12.7895 104.027 12.4379C104.241 12.0729 104.348 11.6579 104.348 11.1919C104.348 10.7259 104.241 10.3139 104.029 9.95594C103.824 9.60026 103.521 9.30574 103.152 9.10494C102.78 8.90122 102.359 8.79596 101.93 8.79994C101.485 8.79994 101.077 8.90194 100.708 9.10494C100.339 9.30687 100.033 9.60051 99.8234 9.95494C99.6047 10.333 99.4942 10.7597 99.5032 11.1919C99.5032 11.6579 99.6096 12.0729 99.8234 12.4379C100.042 12.7959 100.338 13.0769 100.708 13.2799C101.077 13.4829 101.485 13.5849 101.93 13.5849ZM108.829 7.98494H111.359C111.717 7.98494 112.047 8.05894 112.347 8.20894C112.655 8.35794 112.899 8.56394 113.081 8.82694C113.263 9.08994 113.353 9.37894 113.353 9.69594C113.353 10.0129 113.269 10.2869 113.1 10.5199C112.936 10.7529 112.72 10.9299 112.45 11.0489V11.1029C112.789 11.2159 113.063 11.4039 113.269 11.6669C113.483 11.9299 113.589 12.2369 113.589 12.5899C113.589 12.9429 113.492 13.2559 113.297 13.5299C113.109 13.8059 112.852 14.0199 112.526 14.1759C112.198 14.3272 111.837 14.4038 111.472 14.3999H108.829V7.98494ZM111.312 10.6729C111.614 10.6729 111.855 10.5829 112.037 10.4029C112.225 10.2249 112.319 10.0189 112.319 9.78594C112.32 9.6718 112.296 9.55874 112.249 9.4538C112.202 9.34886 112.133 9.25428 112.047 9.17594C111.87 8.99694 111.639 8.90794 111.35 8.90794H109.883V10.6729H111.312ZM111.472 13.4679C111.792 13.4679 112.047 13.3729 112.234 13.1809C112.327 13.0948 112.4 12.9917 112.451 12.8778C112.501 12.7639 112.527 12.6416 112.526 12.5179C112.527 12.3934 112.501 12.27 112.449 12.1558C112.397 12.0416 112.321 11.9391 112.225 11.8549C112.031 11.6649 111.767 11.5689 111.434 11.5689H109.883V13.4689L111.472 13.4679Z" fill="black"/>
<path d="M35.846 29.147C39.8718 27.022 42.9224 25.403 43.1863 25.277C44.0269 24.847 44.8967 23.709 43.1863 22.825C42.6335 22.547 39.6611 20.978 35.846 18.955L30.5583 24.09L35.846 29.148V29.147Z" fill="#FFD900"/>
<path d="M30.5583 24.089L13.7189 40.4C14.1142 40.45 14.5606 40.35 15.0862 40.072C16.1917 39.491 27.8988 33.345 35.845 29.148L30.5572 24.088L30.5583 24.089Z" fill="#F43249"/>
<path d="M30.5583 24.089L35.846 18.981C35.846 18.981 16.272 8.71298 15.0883 8.10698C14.6704 7.86541 14.1761 7.77531 13.6949 7.85298L30.5583 24.089Z" fill="#00EE76"/>
<path d="M30.5583 24.089L13.6939 7.85303C13.0107 8.00503 12.4319 8.58603 12.4319 9.77403V38.478C12.4319 39.566 12.8804 40.35 13.721 40.425L30.5583 24.089Z" fill="#00D3FF"/>
</g>
</svg>
