<svg width="203" height="90" viewBox="0 0 203 90" fill="none" xmlns="http://www.w3.org/2000/svg">
<path d="M122.28 73V17H131.24V73H122.28ZM152.274 73V17H169.794C175.367 17 180.287 18.2 184.554 20.6C188.82 22.9733 192.154 26.2667 194.554 30.48C196.98 34.6933 198.194 39.5467 198.194 45.04C198.194 49.12 197.5 52.88 196.114 56.32C194.754 59.7333 192.807 62.68 190.274 65.16C187.74 67.64 184.74 69.5733 181.274 70.96C177.807 72.32 173.98 73 169.794 73H152.274ZM161.234 64.64H168.714C171.727 64.64 174.46 64.2 176.914 63.32C179.394 62.4133 181.514 61.1067 183.274 59.4C185.06 57.6933 186.434 55.64 187.394 53.24C188.354 50.8133 188.834 48.08 188.834 45.04C188.834 40.96 187.994 37.4533 186.314 34.52C184.66 31.56 182.327 29.2933 179.314 27.72C176.3 26.12 172.767 25.32 168.714 25.32H161.234V64.64Z" fill="black"/>
<mask id="mask0_165_21" style="mask-type:luminance" maskUnits="userSpaceOnUse" x="0" y="0" width="90" height="90">
<path d="M90 0H0V90H90V0Z" fill="white"/>
</mask>
<g mask="url(#mask0_165_21)">
<path d="M90 0H0V90H90V0Z" fill="#FF0032"/>
<path d="M59.9563 6.92139V11.0634H69.0134V27.6864H74.0759V11.0634H83.1145V6.92139H59.9563Z" fill="white"/>
<path d="M27.3919 6.92139L20.7646 20.6544L14.156 6.92139H6.92139V27.6864H12.0022V12.8306L18.4636 25.3853H23.0842L29.5456 12.8306V27.6864H34.6081V6.92139H27.3919Z" fill="white"/>
<path d="M78.0517 76.1565C77.9228 76.9849 77.5915 77.666 77.0576 78.1815C76.5605 78.6601 75.8794 79.0099 75.0326 79.2124C74.2042 79.3965 72.971 79.5069 71.6823 79.5069C70.3385 79.5069 69.1603 79.3413 68.1478 78.9915C67.1721 78.6601 66.3989 78.071 65.8651 77.261C65.3128 76.451 65.0367 75.2731 65.0367 73.7451V71.6281C65.0367 70.1185 65.3128 68.9403 65.8651 68.1119C66.4173 67.3019 67.1721 66.713 68.1478 66.3817C69.1419 66.0319 70.3385 65.8662 71.6823 65.8662C72.971 65.8662 74.2042 65.9767 75.0326 66.1608C75.8794 66.3633 76.5605 66.6944 77.0576 67.1915C77.5915 67.7069 77.9228 68.388 78.0517 69.2165H83.114C82.9667 67.5044 82.3962 66.0503 81.3837 64.8721C80.4633 63.8044 79.1746 63.0312 77.573 62.5526C76.0267 62.0923 73.9833 61.853 71.6823 61.853C69.2523 61.853 67.1537 62.2028 65.4232 62.8839C63.6746 63.5835 62.3123 64.7433 61.3735 66.3448C60.4714 67.8726 60.0112 69.9344 59.9744 72.4381V72.6774L60.2505 72.6958L59.9744 72.7142V72.7326V72.9535C60.0112 75.4571 60.4714 77.5188 61.3735 79.0467C62.3123 80.6483 63.6746 81.8081 65.4232 82.5076C67.1537 83.1888 69.2523 83.5385 71.6823 83.5385C73.9833 83.5385 76.0267 83.2992 77.573 82.839C79.1746 82.3603 80.4449 81.5872 81.3837 80.5194C82.3962 79.3597 82.9851 77.8869 83.114 76.1749H78.0517V76.1565Z" fill="white"/>
</g>
</svg>
