<svg width="79" height="79" viewBox="0 0 79 79" fill="none" xmlns="http://www.w3.org/2000/svg">
<g clip-path="url(#clip0_40_3414)">
<path d="M39.5005 79C17.7201 79 0 61.2797 0 39.5C0 17.7203 17.7201 0 39.5005 0C61.2799 0 79 17.7193 79 39.5C79 61.2807 61.2799 79 39.5005 79ZM39.5005 1.01917C18.2817 1.01917 1.01916 18.2819 1.01916 39.5C1.01916 60.7191 18.2817 77.9808 39.5005 77.9808C60.7194 77.9808 77.9809 60.7181 77.9809 39.5C77.9809 18.2819 60.7184 1.01917 39.5005 1.01917Z" fill="#E30613"/>
<path d="M39.5006 28.7406C28.6833 28.7406 18.5865 24.4519 11.0723 16.6644L11.805 15.9571C19.1267 23.5428 28.9615 27.7214 39.5006 27.7214C50.0418 27.7214 59.8777 23.5428 67.1963 15.9551L67.9311 16.6624C60.4168 24.4509 50.32 28.7406 39.5006 28.7406Z" fill="#E30613"/>
<path d="M11.8031 63.0469L11.0703 62.3406C18.5846 54.5501 28.6814 50.2594 39.5007 50.2594C50.3181 50.2594 60.4149 54.5481 67.9291 62.3356L67.1963 63.0439C59.8747 55.4572 50.0398 51.2786 39.5007 51.2786C28.9606 51.2786 19.1247 55.4582 11.8031 63.0469Z" fill="#E30613"/>
<path d="M39.5004 75.703C28.1898 75.703 18.9878 59.4615 18.9878 39.5C18.9878 19.5375 28.1898 3.297 39.5004 3.297C50.811 3.297 60.013 19.5375 60.013 39.5C60.013 59.4615 50.81 75.703 39.5004 75.703ZM39.5004 4.31617C28.7513 4.31617 20.007 20.099 20.007 39.5C20.007 58.9009 28.7513 74.6838 39.5004 74.6838C50.2494 74.6838 58.9938 58.9009 58.9938 39.5C58.9938 20.099 50.2494 4.31617 39.5004 4.31617Z" fill="#E30613"/>
<path d="M40.0099 3.80554H38.9907V75.1923H40.0099V3.80554Z" fill="#E30613"/>
<path d="M75.0842 38.9904H3.91846V40.0095H75.0842V38.9904Z" fill="#E30613"/>
</g>
<defs>
<clipPath id="clip0_40_3414">
<rect width="79" height="79" fill="white"/>
</clipPath>
</defs>
</svg>
