<svg width="98" height="79" viewBox="0 0 98 79" fill="none" xmlns="http://www.w3.org/2000/svg">
<path d="M16.4782 7.78878C14.2423 9.99379 14.0766 12.1906 13.745 16.5842C13.659 17.7232 13.6069 18.898 13.6069 20.0729C13.6069 21.2478 13.659 22.4227 13.745 23.5616C14.0766 27.9552 14.2423 30.152 16.4782 32.357C18.714 34.562 20.9415 34.7255 25.3966 35.0525C26.5515 35.1373 27.7427 35.1887 28.934 35.1887C30.1253 35.1887 31.3166 35.1373 32.4714 35.0525C36.9265 34.7255 39.154 34.562 41.3899 32.357C43.6257 30.152 43.7914 27.9552 44.123 23.5616C44.209 22.4227 44.2611 21.2478 44.2611 20.0729C44.2611 18.898 44.209 17.7232 44.123 16.5842C43.7914 12.1906 43.6257 9.99379 41.3899 7.78878C39.154 5.58377 36.9265 5.42028 32.4714 5.09329C31.3166 5.00852 30.1253 4.95715 28.934 4.95715C27.7427 4.95715 26.5515 5.00852 25.3966 5.09329C20.9415 5.42028 18.714 5.58377 16.4782 7.78878Z" stroke="#E30613" stroke-width="2" stroke-miterlimit="10"/>
<path d="M55.8898 7.78878C53.654 9.99379 53.4882 12.1906 53.1566 16.5842C53.0707 17.7232 53.0186 18.898 53.0186 20.0729C53.0186 21.2478 53.0707 22.4227 53.1566 23.5616C53.4882 27.9552 53.654 30.152 55.8898 32.357C58.1256 34.562 60.3531 34.7255 64.8082 35.0525C65.9631 35.1373 67.1543 35.1887 68.3457 35.1887C69.5369 35.1887 70.7283 35.1373 71.8831 35.0525C76.3381 34.7255 78.5657 34.562 80.8015 32.357C83.0373 30.152 83.2032 27.9552 83.5346 23.5616C83.6206 22.4227 83.6727 21.2478 83.6727 20.0729C83.6727 18.898 83.6206 17.7232 83.5346 16.5842C83.2032 12.1906 83.0373 9.99379 80.8015 7.78878C78.5657 5.58377 76.3381 5.42028 71.8831 5.09329C70.7283 5.00852 69.5369 4.95715 68.3457 4.95715C67.1543 4.95715 65.9631 5.00852 64.8082 5.09329C60.3531 5.42028 58.1256 5.58377 55.8898 7.78878Z" stroke="#E30613" stroke-width="2" stroke-miterlimit="10"/>
<path d="M53.1566 55.441C53.4881 51.0485 53.6539 48.8522 55.8891 46.6477C58.1244 44.4433 60.3513 44.2798 64.8053 43.9529C65.9599 43.8681 67.1509 43.8168 68.3419 43.8168C69.5329 43.8168 70.7239 43.8681 71.8785 43.9529C76.3324 44.2798 78.5594 44.4433 80.7947 46.6477C83.03 48.8522 83.1957 51.0485 83.5272 55.441C83.6131 56.5797 83.6652 57.7543 83.6652 58.9289C83.6652 60.1035 83.6131 61.278 83.5272 62.4167C83.1957 66.8092 83.03 69.0055 80.7947 71.21C78.5594 73.4145 76.3324 73.5779 71.8785 73.9048C70.7239 73.9896 69.5329 74.0409 68.3419 74.0409C67.1509 74.0409 65.9599 73.9896 64.8053 73.9048C60.3513 73.5779 58.1244 73.4145 55.8891 71.21C53.6539 69.0055 53.4881 66.8092 53.1566 62.4167C53.0706 61.278 53.0186 60.1035 53.0186 58.9289C53.0186 57.7543 53.0706 56.5797 53.1566 55.441Z" stroke="#E30613" stroke-width="2" stroke-miterlimit="10"/>
<path d="M16.4864 46.6478C14.251 48.8524 14.0853 51.0487 13.7538 55.4415C13.6678 56.5801 13.6157 57.7548 13.6157 58.9294C13.6157 60.1041 13.6678 61.2786 13.7538 62.4173C14.0853 66.8101 14.251 69.0064 16.4864 71.2109C18.7218 73.4155 20.9488 73.5789 25.4029 73.9059C26.5575 73.9907 27.7486 74.042 28.9396 74.042C30.1307 74.042 31.3217 73.9907 32.4763 73.9059C36.9304 73.5789 39.1575 73.4155 41.3928 71.2109C43.6282 69.0064 43.7939 66.8101 44.1254 62.4173C44.2114 61.2786 44.2635 60.1041 44.2635 58.9294C44.2635 57.7548 44.2114 56.5801 44.1254 55.4415C43.7939 51.0487 43.6282 48.8524 41.3928 46.6478C39.1575 44.4433 36.9304 44.2798 32.4763 43.9529C31.3217 43.8681 30.1307 43.8168 28.9396 43.8168C27.7486 43.8168 26.5575 43.8681 25.4029 43.9529C20.9488 44.2798 18.7218 44.4433 16.4864 46.6478Z" stroke="#E30613" stroke-width="2" stroke-miterlimit="10"/>
</svg>
