<svg width="79" height="79" viewBox="0 0 79 79" fill="none" xmlns="http://www.w3.org/2000/svg">
<g clip-path="url(#clip0_40_3421)">
<path d="M52.0864 78.1593C45.0953 78.1593 38.5977 75.4451 33.6628 70.5102C28.7279 65.5753 26.0137 59.0776 26.0137 52.0866C26.0137 45.0954 28.7279 38.5978 33.6628 33.6629C38.5977 28.728 45.0953 26.0138 52.0864 26.0138C58.9953 26.0138 65.5752 28.728 70.5101 33.6629C75.445 38.5978 78.1591 45.0954 78.1591 52.0866C78.1591 59.0776 75.445 65.5753 70.5101 70.5102C65.5752 75.4451 59.0775 78.1593 52.0864 78.1593ZM52.0864 27.741C45.5888 27.741 39.4201 30.2907 34.8143 34.8967C30.2083 39.5025 27.6586 45.5889 27.6586 52.1688C27.6586 58.6664 30.2083 64.8351 34.8143 69.4409C39.4201 74.0469 45.5066 76.5966 52.0864 76.5966C58.6663 76.5966 64.7527 74.0469 69.3586 69.4409C73.9645 64.8351 76.5142 58.7487 76.5142 52.1688C76.5142 45.6712 73.9645 39.5025 69.3586 34.8967C64.7527 30.2907 58.6663 27.741 52.0864 27.741Z" fill="#E30613"/>
<path d="M26.7071 52.9859C19.7873 52.9036 13.3618 50.185 8.50149 45.3248C-1.71339 35.1922 -1.71339 18.6342 8.50149 8.5016C13.4442 3.55894 19.9521 0.840454 26.9543 0.840454C33.874 0.840454 40.3819 3.55894 45.3246 8.5016C50.1849 13.362 52.9034 19.8699 52.9858 26.7896H51.3382C51.2559 20.3641 48.7845 14.2681 44.1713 9.65492C39.5582 5.04175 33.3798 2.48802 26.8718 2.48802C20.364 2.48802 14.1856 5.04175 9.57244 9.65492C0.0989324 19.1284 0.0989324 34.6156 9.65481 44.1714C14.1856 48.7023 20.2817 51.256 26.7895 51.3383L26.7071 52.9859Z" fill="#E10B29"/>
<path d="M49.006 66.7481H47.3496V36.7678H52.8984C53.8095 36.7678 55.0518 36.7678 56.1284 37.1819C59.1926 38.0101 61.0975 41.0744 61.0975 45.0497C61.0975 50.2672 58.1988 53.4972 53.6438 53.4972H48.9232V66.7481H49.006ZM49.006 51.8408H53.7267C57.4535 51.8408 59.5239 49.3562 59.5239 45.0497C59.5239 41.8198 58.0332 39.418 55.7143 38.7555C54.7205 38.4242 53.3954 38.4242 52.8984 38.4242H49.006V51.8408Z" fill="#E10B29"/>
<path d="M48.1788 51.8405H41.3877V53.4968H48.1788V51.8405Z" fill="#E10B29"/>
<path d="M57.3717 57.2228H41.3877V58.8792H57.3717V57.2228Z" fill="#E10B29"/>
<path d="M22.0616 36.8028L12.5273 27.5617L13.6982 26.4268L22.0616 34.5331L40.1264 17.0236L41.2973 18.1584L22.0616 36.8028Z" fill="#E30613"/>
</g>
<defs>
<clipPath id="clip0_40_3421">
<rect width="79" height="79" fill="white"/>
</clipPath>
</defs>
</svg>
