<svg width="59" height="59" viewBox="0 0 59 59" fill="none" xmlns="http://www.w3.org/2000/svg">
<g clip-path="url(#clip0_1_5)">
<mask id="mask0_1_5" style="mask-type:luminance" maskUnits="userSpaceOnUse" x="0" y="0" width="59" height="59">
<path d="M59 0H0V59H59V0Z" fill="white"/>
</mask>
<g mask="url(#mask0_1_5)">
<path d="M59 0H0V59H59V0Z" fill="#FF0032"/>
<path d="M39.3047 4.5375V7.25279H45.2421V18.1501H48.5609V7.25279H54.4862V4.5375H39.3047Z" fill="white"/>
<path d="M17.9569 4.5375L13.6124 13.5402L9.28004 4.5375H4.53735V18.1501H7.86809V8.4113L12.1039 16.6416H15.133L19.3688 8.4113V18.1501H22.6875V4.5375H17.9569Z" fill="white"/>
<path d="M51.1672 49.9249C51.0827 50.4679 50.8655 50.9145 50.5155 51.2524C50.1897 51.5661 49.7432 51.7954 49.188 51.9282C48.645 52.0489 47.8365 52.1213 46.9918 52.1213C46.1108 52.1213 45.3384 52.0127 44.6747 51.7834C44.0351 51.5661 43.5282 51.18 43.1782 50.649C42.8162 50.118 42.6351 49.3457 42.6351 48.3441V46.9562C42.6351 45.9666 42.8162 45.1943 43.1782 44.6512C43.5403 44.1202 44.0351 43.7342 44.6747 43.5169C45.3263 43.2876 46.1108 43.179 46.9918 43.179C47.8365 43.179 48.645 43.2514 49.188 43.3721C49.7432 43.5049 50.1897 43.722 50.5155 44.0478C50.8655 44.3857 51.0827 44.8322 51.1672 45.3753H54.4858C54.3893 44.253 54.0153 43.2997 53.3516 42.5273C52.7481 41.8274 51.9034 41.3205 50.8534 41.0067C49.8397 40.705 48.5001 40.5482 46.9918 40.5482C45.3988 40.5482 44.023 40.7775 42.8886 41.224C41.7422 41.6826 40.8492 42.4429 40.2337 43.4928C39.6424 44.4943 39.3407 45.846 39.3165 47.4872V47.6441L39.4975 47.6562L39.3165 47.6682V47.6803V47.8251C39.3407 49.4664 39.6424 50.8179 40.2337 51.8196C40.8492 52.8695 41.7422 53.6298 42.8886 54.0884C44.023 54.5349 45.3988 54.7642 46.9918 54.7642C48.5001 54.7642 49.8397 54.6073 50.8534 54.3056C51.9034 53.9918 52.7361 53.485 53.3516 52.785C54.0153 52.0247 54.4014 51.0593 54.4858 49.9369H51.1672V49.9249Z" fill="white"/>
</g>
</g>
<defs>
<clipPath id="clip0_1_5">
<rect width="59" height="59" rx="10" fill="white"/>
</clipPath>
</defs>
</svg>
