<svg width="80" height="80" viewBox="0 0 80 80" fill="none" xmlns="http://www.w3.org/2000/svg">
<g clip-path="url(#clip0_18_28)">
<path d="M61.8182 0H18.1818C8.14028 0 0 8.14028 0 18.1818V61.8182C0 71.8597 8.14028 80 18.1818 80H61.8182C71.8597 80 80 71.8597 80 61.8182V18.1818C80 8.14028 71.8597 0 61.8182 0Z" fill="#FF0032"/>
<path d="M41.2307 33.231V17.231L58.4615 25.8463V41.8463L41.2307 33.231Z" fill="white"/>
<path d="M41.2305 53.5387C41.2305 58.6367 37.0978 62.7694 31.9997 62.7694C26.9017 62.7694 22.769 58.6367 22.769 53.5387C22.769 48.4406 26.9017 44.3079 31.9997 44.3079C37.0978 44.3079 41.2305 48.4406 41.2305 53.5387Z" fill="white"/>
</g>
<defs>
<clipPath id="clip0_18_28">
<rect width="80" height="80" fill="white"/>
</clipPath>
</defs>
</svg>
