<svg width="40" height="40" viewBox="0 0 40 40" fill="none" xmlns="http://www.w3.org/2000/svg">
<g clip-path="url(#clip0_38_926)">
<path fill-rule="evenodd" clip-rule="evenodd" d="M13.562 10.9072C15.4808 10.0441 18.127 9.09082 20.4546 9.09082C22.7823 9.09082 25.4285 10.0441 27.3473 10.9072C28.5895 11.466 29.2106 11.7454 29.6383 12.4459C30.0662 13.1464 30.0284 13.8556 29.9531 15.2741C29.7389 19.3086 28.9465 23.2717 26.4021 26.5368C25.143 28.1527 22.5063 30.3029 20.4546 30.3029C18.403 30.3029 15.7662 28.1527 14.5071 26.5368C11.9628 23.2717 11.1705 19.3086 10.9562 15.2742C10.8808 13.8556 10.8431 13.1464 11.2709 12.4459C11.6987 11.7453 12.3198 11.466 13.562 10.9072ZM14.4362 12.8408C16.3003 12.0023 18.601 11.212 20.4546 11.212C22.3083 11.212 24.609 12.0024 26.4732 12.8408C27.1429 13.1421 27.456 13.2878 27.67 13.4214C27.7843 13.5219 27.8263 13.5826 27.8643 13.756C27.8857 14.0281 27.8701 14.4005 27.8297 15.1619C27.6242 19.0291 26.8745 22.4743 24.7231 25.2352C24.2299 25.8682 23.4155 26.6614 22.5168 27.2807C21.5591 27.9407 20.828 28.1818 20.4546 28.1818C20.0813 28.1818 19.35 27.9407 18.3925 27.2807C17.4937 26.6612 16.6794 25.8682 16.1861 25.2352C14.0348 22.4743 13.2851 19.0292 13.0797 15.162C13.0392 14.4005 13.0236 14.0281 13.0449 13.756C13.0837 13.5953 13.1275 13.523 13.2392 13.4214C13.4533 13.2878 13.7664 13.1421 14.4362 12.8408Z" fill="black"/>
</g>
<defs>
<clipPath id="clip0_38_926">
<rect width="40" height="40" fill="white"/>
</clipPath>
</defs>
</svg>
