<svg width="62" height="62" viewBox="0 0 62 62" fill="none" xmlns="http://www.w3.org/2000/svg">
<g clip-path="url(#clip0_68_35)">
<path d="M46.5 0H15.5C6.93959 0 0 6.93959 0 15.5V46.5C0 55.0604 6.93959 62 15.5 62H46.5C55.0604 62 62 55.0604 62 46.5V15.5C62 6.93959 55.0604 0 46.5 0Z" fill="url(#paint0_linear_68_35)"/>
<mask id="mask0_68_35" style="mask-type:luminance" maskUnits="userSpaceOnUse" x="13" y="13" width="36" height="36">
<path d="M48.0502 13.95H13.9502V48.05H48.0502V13.95Z" fill="white"/>
</mask>
<g mask="url(#mask0_68_35)">
<path fill-rule="evenodd" clip-rule="evenodd" d="M35.5752 25.6281C35.6571 25.8839 35.73 26.1149 35.7921 26.3136C35.9587 26.3254 36.1468 26.3393 36.3521 26.3553C37.1707 26.419 38.2703 26.5168 39.3834 26.6519C40.4875 26.7861 41.6429 26.9615 42.5575 27.1869C43.0086 27.2981 43.455 27.4341 43.8212 27.6077C44.0039 27.6941 44.2105 27.8103 44.3959 27.9688C44.5751 28.122 44.8173 28.3858 44.9159 28.7805C45.0131 29.1694 44.9282 29.512 44.8447 29.7312C44.7584 29.9577 44.6338 30.1575 44.5158 30.3204C44.2793 30.6467 43.9556 30.9779 43.6165 31.2891C42.9291 31.92 42.01 32.62 41.1165 33.259C40.2156 33.9034 39.309 34.5081 38.63 34.9505C38.5136 35.0263 38.4037 35.0975 38.3014 35.1634C38.3395 35.265 38.3799 35.3737 38.4221 35.4886C38.6934 36.2267 39.0451 37.229 39.3612 38.2738C39.6742 39.3091 39.9655 40.4286 40.0993 41.3885C40.1657 41.8653 40.2009 42.353 40.1618 42.7948C40.1262 43.1956 40.012 43.7826 39.5727 44.222C39.0245 44.7702 38.3086 44.7483 37.8866 44.6756C37.431 44.5972 36.9601 44.4045 36.53 44.1896C35.6555 43.7531 34.6575 43.0749 33.7467 42.3987C32.8248 41.7143 31.9454 40.9963 31.2993 40.4524C31.1935 40.3632 31.0936 40.2785 31.0006 40.1992C30.9077 40.2785 30.8079 40.3632 30.702 40.4524C30.0559 40.9963 29.1764 41.7143 28.2546 42.3987C27.3438 43.0749 26.3458 43.7531 25.4713 44.1896C25.0412 44.4045 24.5703 44.5972 24.1147 44.6756C23.6927 44.7483 22.9768 44.7702 22.4286 44.222C21.9892 43.7826 21.8751 43.1955 21.8395 42.7948C21.8004 42.353 21.8356 41.8653 21.902 41.3885C22.0358 40.4286 22.3271 39.3091 22.6402 38.2738C22.9561 37.229 23.3078 36.2267 23.5792 35.4886C23.6215 35.3737 23.6618 35.265 23.6998 35.1634C23.5976 35.0975 23.4877 35.0263 23.3713 34.9505C22.6923 34.5081 21.7857 33.9034 20.8848 33.259C19.9914 32.62 19.0722 31.92 18.3848 31.2891C18.0457 30.9779 17.7221 30.6467 17.4856 30.3204C17.3675 30.1575 17.2429 29.9577 17.1566 29.7312C17.0731 29.5121 16.9882 29.1694 17.0854 28.7805C17.184 28.3859 17.4261 28.122 17.6054 27.9688C17.7908 27.8103 17.9975 27.6941 18.18 27.6077C18.5462 27.4341 18.9926 27.2981 19.4438 27.1869C20.3583 26.9615 21.5138 26.7861 22.6179 26.6519C23.731 26.5168 24.8306 26.419 25.6492 26.3553C25.8545 26.3393 26.0426 26.3254 26.2092 26.3136C26.2714 26.1149 26.3442 25.8839 26.426 25.6281C26.7049 24.7568 27.0902 23.5908 27.5138 22.4211C27.9344 21.2593 28.4044 20.0615 28.8538 19.1412C29.0755 18.6872 29.315 18.253 29.5646 17.9162C29.6881 17.7494 29.8451 17.5637 30.0374 17.4094C30.2152 17.2667 30.5481 17.05 31.0006 17.05C31.4532 17.05 31.7862 17.2667 31.9639 17.4094C32.1562 17.5637 32.3133 17.7494 32.4368 17.9162C32.6863 18.253 32.9258 18.6872 33.1475 19.1412C33.5969 20.0615 34.0668 21.2593 34.4875 22.4211C34.9111 23.5908 35.2964 24.7568 35.5752 25.6281ZM31.0006 20.045C30.6131 20.045 27.9648 28.5365 27.9648 28.5365C27.9648 28.5365 19.9656 29.0625 19.8551 29.4813C19.7631 29.8297 26.5706 34.22 26.5706 34.22C26.5706 34.22 23.8915 42.0423 24.1523 42.2402C24.4131 42.4382 31.0006 37.0978 31.0006 37.0978C31.0006 37.0978 37.5881 42.4359 37.849 42.2402C38.1099 42.0446 35.4307 34.22 35.4307 34.22C35.4307 34.22 42.2381 29.8295 42.1463 29.4813C42.0358 29.0625 34.0365 28.5365 34.0365 28.5365C34.0365 28.5365 31.3881 20.045 31.0006 20.045Z" fill="white"/>
</g>
</g>
<defs>
<linearGradient id="paint0_linear_68_35" x1="56.0121" y1="5.98786" x2="0" y2="62" gradientUnits="userSpaceOnUse">
<stop stop-color="#E8BDEA"/>
<stop offset="1" stop-color="#A5B6F8"/>
</linearGradient>
<clipPath id="clip0_68_35">
<rect width="62" height="62" fill="white"/>
</clipPath>
</defs>
</svg>
