<svg width="62" height="62" viewBox="0 0 62 62" fill="none" xmlns="http://www.w3.org/2000/svg">
<g clip-path="url(#clip0_68_28)">
<path d="M46.5 0H15.5C6.93959 0 0 6.93959 0 15.5V46.5C0 55.0604 6.93959 62 15.5 62H46.5C55.0604 62 62 55.0604 62 46.5V15.5C62 6.93959 55.0604 0 46.5 0Z" fill="url(#paint0_linear_68_28)"/>
<mask id="mask0_68_28" style="mask-type:luminance" maskUnits="userSpaceOnUse" x="13" y="13" width="36" height="36">
<path d="M48.0502 13.95H13.9502V48.0499H48.0502V13.95Z" fill="white"/>
</mask>
<g mask="url(#mask0_68_28)">
<path fill-rule="evenodd" clip-rule="evenodd" d="M23.2504 17.825C22.5327 17.825 21.9229 18.1091 21.4622 18.5808C21.0321 19.0211 20.7664 19.5864 20.5918 20.1389C20.2449 21.2374 20.1504 22.6458 20.1504 24.025V37.975C20.1504 39.1755 20.2476 40.5686 20.5869 41.6996C20.756 42.263 21.0109 42.8516 21.4189 43.3178C21.8545 43.8157 22.4722 44.175 23.2504 44.175C23.8364 44.175 24.4818 44.0055 25.0922 43.7914C25.7236 43.57 26.4163 43.2644 27.1266 42.9198C28.4286 42.288 29.8709 41.4846 31.2112 40.7381L31.5656 40.5407C33.9817 39.1964 36.8343 37.5257 39.0934 35.9352C40.2189 35.1429 41.2356 34.3438 41.9829 33.5927C42.3562 33.2176 42.6913 32.8259 42.9396 32.4267C43.1795 32.0409 43.4004 31.5497 43.4004 31C43.4004 30.4502 43.1795 29.959 42.9396 29.5733C42.6913 29.1741 42.3562 28.7823 41.9829 28.4072C41.2356 27.6561 40.2189 26.857 39.0934 26.0647C36.8343 24.4742 33.9817 22.8036 31.5656 21.4592L31.2113 21.2618C29.8711 20.5153 28.4286 19.7119 27.1266 19.0801C26.4163 18.7356 25.7236 18.4299 25.0922 18.2085C24.4818 17.9944 23.8364 17.825 23.2504 17.825ZM22.4754 24.025C22.4754 22.6916 22.5746 21.5812 22.809 20.8391C22.925 20.4713 23.0468 20.2858 23.1254 20.2054C23.1732 20.1565 23.1931 20.15 23.2504 20.15C23.4393 20.15 23.7878 20.2148 24.3226 20.4024C24.8365 20.5827 25.4407 20.8464 26.1116 21.1719C27.3512 21.7734 28.7364 22.5448 30.0911 23.2992L30.4352 23.4907C32.8325 24.8248 35.5987 26.4478 37.755 27.9658C38.8372 28.7277 39.7274 29.4366 40.3349 30.0472C40.5177 30.2309 40.6569 30.3903 40.7621 30.5234C40.9895 30.8112 40.9895 31.1887 40.7621 31.4765C40.6569 31.6096 40.5177 31.769 40.3349 31.9527C39.7274 32.5633 38.8372 33.2722 37.755 34.0341C35.5987 35.5521 32.8325 37.1752 30.4352 38.5092L30.0911 38.7007C28.7364 39.4551 27.3512 40.2266 26.1116 40.828C25.4407 41.1535 24.8365 41.4172 24.3226 41.5975C23.7878 41.7851 23.4393 41.85 23.2504 41.85C23.2435 41.85 23.2393 41.8495 23.2374 41.8493C23.233 41.8469 23.2089 41.8328 23.1686 41.7868C23.068 41.6718 22.9354 41.4369 22.8138 41.0316C22.572 40.2251 22.4754 39.0994 22.4754 37.975V24.025Z" fill="white"/>
</g>
</g>
<defs>
<linearGradient id="paint0_linear_68_28" x1="56.0121" y1="5.98786" x2="0" y2="62" gradientUnits="userSpaceOnUse">
<stop stop-color="#E8BDEA"/>
<stop offset="1" stop-color="#A5B6F8"/>
</linearGradient>
<clipPath id="clip0_68_28">
<rect width="62" height="62" fill="white"/>
</clipPath>
</defs>
</svg>
