<svg width="65" height="65" viewBox="0 0 65 65" fill="none" xmlns="http://www.w3.org/2000/svg">
<rect width="65" height="65" rx="15" fill="#DADFFF"/>
<path fill-rule="evenodd" clip-rule="evenodd" d="M37.0922 35.3087L30.6868 28.8999L30.6903 28.8952C32.1657 27.2559 32.9033 26.4362 32.893 24.8197C32.8827 23.2032 32.177 22.439 30.7658 20.9105C30.6202 20.7527 30.4707 20.5967 30.318 20.444C29.1765 19.3018 27.9302 18.6353 27.0839 18.2767C25.973 17.8061 24.7967 18.0057 23.6869 18.357C22.6288 18.6919 21.403 19.2819 20.4204 20.3207C19.6614 21.0983 19.1256 21.8468 18.735 22.738C17.4969 25.5627 17.9176 28.8568 19.2908 31.6183C20.4299 33.9092 22.4168 36.9588 25.8713 40.4152C29.2536 43.7993 31.9585 45.488 34.2312 46.6388C37.0777 48.0803 40.506 48.5467 43.3988 47.2008C44.2302 46.814 44.9415 46.2922 45.68 45.5687C47.183 44.1373 47.7407 42.1957 47.9472 41.0052C48.0665 40.3167 47.9822 39.5575 47.7097 38.9138C47.3512 38.067 46.6852 36.82 45.5437 35.6778C45.391 35.5252 45.235 35.3757 45.0773 35.2298C43.5497 33.8178 42.7858 33.1118 41.1702 33.1015C39.5547 33.0912 38.7353 33.8293 37.097 35.3053L37.0922 35.3087ZM40.3 36.9277C40.579 36.694 40.7535 36.5705 40.8602 36.5063C41.0218 36.4092 41.2633 36.394 41.4273 36.4933C41.5095 36.5432 41.6487 36.641 41.8902 36.8463C42.1383 37.0572 42.418 37.3148 42.8142 37.681C43.5385 38.3507 44.5618 39.407 44.6593 40.444C44.5015 41.3468 44.1217 42.4457 43.3805 43.1515L43.3465 43.1843C42.8155 43.7047 42.409 43.9812 41.9925 44.1748C40.2973 44.9635 37.9763 44.7952 35.7373 43.6613C33.7532 42.6567 31.3422 41.1698 28.2297 38.0555C25.021 34.8452 23.2496 32.0882 22.2769 30.1318C21.2146 27.9955 21.052 25.7608 21.7894 24.0782C22.0357 23.5164 22.4212 23.0533 22.8428 22.6145C23.5479 21.8691 24.6492 21.4871 25.5544 21.3287C26.4369 21.4117 27.3634 22.207 27.9597 22.8036C28.0789 22.9229 28.1978 23.047 28.316 23.175C28.6819 23.5713 28.9394 23.8511 29.1502 24.0993C29.3554 24.341 29.4531 24.4803 29.503 24.5626C29.5968 24.7174 29.5811 24.9783 29.49 25.1299C29.4282 25.2328 29.3154 25.3939 29.0939 25.6605C28.8712 25.9285 28.5979 26.2334 28.2029 26.6664L27.1203 27.7946C26.4908 28.4505 26.5022 29.49 27.1459 30.132L35.8193 38.782C36.437 39.398 37.425 39.4337 38.0855 38.8638L39.344 37.7782C39.7505 37.407 40.0445 37.1418 40.3015 36.9285L40.3 36.9277Z" fill="black"/>
</svg>
