<svg width="65" height="65" viewBox="0 0 65 65" fill="none" xmlns="http://www.w3.org/2000/svg">
<rect width="65" height="65" rx="15" fill="#DADFFF"/>
<path d="M36.0016 32.9991C36.9221 32.9991 37.6683 32.2529 37.6683 31.3324C37.6683 30.4119 36.9221 29.6658 36.0016 29.6658H29.3341C28.4137 29.6658 27.6675 30.4119 27.6675 31.3324C27.6675 32.2529 28.4137 32.9991 29.3341 32.9991H36.0016Z" fill="black"/>
<path fill-rule="evenodd" clip-rule="evenodd" d="M49.3342 34.3545V29.8697L49.3077 29.8585C49.283 29.178 49.2423 28.5192 49.1897 27.8862C48.9202 24.6502 48.7855 23.0322 46.6363 20.8755C44.4873 18.7188 42.7995 18.5723 39.4242 18.2794C37.503 18.1126 35.2495 18 32.6673 18C30.0842 18 27.83 18.1127 25.9086 18.2795C22.5346 18.5725 20.8477 18.719 18.6987 20.8753C16.5498 23.0316 16.415 24.6487 16.1453 27.883C16.0551 28.9647 16 30.1215 16 31.3333C16 32.5453 16.0551 33.7022 16.1453 34.7838C16.415 38.018 16.5498 39.6352 18.6987 41.7915C20.8477 43.9477 22.5345 44.0942 25.9083 44.3872C27.8298 44.554 30.084 44.6669 32.6673 44.6669C34.2018 44.6669 35.6203 44.627 36.9218 44.5597C41.8662 47.4725 44.6313 48.763 46.7977 47.5363C49.3342 46.1002 49.3342 42.185 49.3342 34.3545ZM45.8677 28.1627C45.9163 28.7467 45.9538 29.3535 45.9765 29.9793L46.0008 34.3545C46.0008 38.3825 45.992 41.0202 45.72 42.8542C45.589 43.7367 45.4247 44.2055 45.3018 44.4437C45.2185 44.6052 45.176 44.6257 45.1593 44.6337L45.1553 44.6357L45.1512 44.6382C45.1297 44.6505 45.106 44.6642 45.0048 44.6652C44.8538 44.6665 44.5357 44.6338 43.9677 44.442C42.7628 44.0353 41.1183 43.1632 38.6138 41.6877L37.7505 41.1792L36.7498 41.2308C35.5053 41.2952 34.1442 41.3335 32.6673 41.3335C30.1812 41.3335 28.0231 41.225 26.1967 41.0663C24.3991 40.9102 23.5274 40.8188 22.8261 40.6027C22.3059 40.4423 21.8056 40.1868 21.0598 39.4385C20.2969 38.673 20.0493 38.1802 19.8996 37.7C19.6953 37.0442 19.6112 36.2352 19.4671 34.507C19.3839 33.5089 19.3333 32.4447 19.3333 31.3333C19.3333 30.2222 19.3839 29.158 19.4671 28.16C19.6112 26.4317 19.6952 25.6226 19.8996 24.9668C20.0493 24.4866 20.2969 23.9938 21.0598 23.2283C21.8056 22.4799 22.3059 22.2244 22.8261 22.0641C23.5275 21.8479 24.3992 21.7565 26.1969 21.6004C28.0233 21.4418 30.1812 21.3333 32.6673 21.3333C35.1525 21.3333 37.3098 21.4418 39.136 21.6002C40.9343 21.7563 41.8067 21.8478 42.5085 22.064C43.0292 22.2245 43.5295 22.48 44.2752 23.2284C45.038 23.9939 45.2857 24.4869 45.4353 24.9674C45.6398 25.6238 45.7238 26.4336 45.8677 28.1627Z" fill="black"/>
</svg>
