<svg width="65" height="65" viewBox="0 0 65 65" fill="none" xmlns="http://www.w3.org/2000/svg">
<rect width="65" height="65" rx="15" fill="#DADFFF"/>
<path fill-rule="evenodd" clip-rule="evenodd" d="M26.7954 33.8403C26.9816 32.1746 27.0747 31.3419 27.9164 30.5124C28.7581 29.6829 29.5983 29.6014 31.2788 29.4384C31.9338 29.3749 32.6312 29.3333 33.3337 29.3333C34.0363 29.3333 34.7338 29.3749 35.389 29.4384C37.069 29.6014 37.909 29.6829 38.7505 30.5123C39.5922 31.3416 39.6853 32.1741 39.8717 33.8391C39.949 34.5293 40.0003 35.2646 40.0003 35.9999C40.0003 36.7694 39.9442 37.5324 39.8608 38.2404C39.675 39.8204 39.5822 40.6103 38.7642 41.4286C37.9463 42.2468 37.1565 42.3399 35.577 42.5264C34.868 42.6101 34.104 42.6666 33.3337 42.6666C32.5635 42.6666 31.7997 42.6101 31.0908 42.5264C29.5108 42.3401 28.7207 42.2468 27.9027 41.4284C27.0848 40.6101 26.9919 39.8198 26.8063 38.2393C26.7231 37.5316 26.667 36.7689 26.667 35.9999C26.667 35.2649 26.7183 34.5301 26.7954 33.8403ZM31.6007 32.7563C32.1718 32.7008 32.7595 32.6666 33.3337 32.6666C33.908 32.6666 34.4958 32.7008 35.0672 32.7563C35.5035 32.7986 35.808 32.8286 36.0663 32.8628C36.2112 32.8821 36.3135 32.8993 36.3855 32.9133C36.4002 32.9833 36.4183 33.0821 36.4388 33.2213C36.4765 33.4763 36.5107 33.7773 36.5592 34.2099C36.6258 34.8064 36.667 35.4151 36.667 35.9999C36.667 36.6118 36.622 37.2418 36.5503 37.8511C36.5018 38.2626 36.4683 38.5443 36.4317 38.7824C36.4133 38.9018 36.3973 38.9879 36.3842 39.0496C36.3227 39.0626 36.2365 39.0786 36.1173 39.0971C35.8793 39.1338 35.5977 39.1674 35.1863 39.2161C34.5762 39.2881 33.9457 39.3333 33.3337 39.3333C32.7218 39.3333 32.0913 39.2881 31.4815 39.2161C31.0698 39.1676 30.7882 39.1339 30.55 39.0971C30.4307 39.0786 30.3445 39.0626 30.2828 39.0496C30.2698 38.9879 30.2538 38.9016 30.2353 38.7821C30.1987 38.5438 30.1652 38.2621 30.1168 37.8503C30.0453 37.2413 30.0003 36.6116 30.0003 35.9999C30.0003 35.4153 30.0413 34.8069 30.108 34.2106C30.1565 33.7778 30.1905 33.4768 30.2282 33.2216C30.2488 33.0823 30.2668 32.9833 30.2817 32.9133C30.3535 32.8991 30.456 32.8819 30.601 32.8628C30.8595 32.8284 31.1642 32.7986 31.6007 32.7563Z" fill="black"/>
<path fill-rule="evenodd" clip-rule="evenodd" d="M38.1038 18.0725C36.8293 16.7979 35.136 16 33.3333 16C32.1227 16 30.967 16.055 29.8862 16.1449C26.6502 16.4143 25.0322 16.549 22.8755 18.6981C20.7188 20.8472 20.5723 22.535 20.2794 25.9104C20.1127 27.8315 20 30.085 20 32.6672C20 35.2505 20.1127 37.5045 20.2796 39.426C20.5725 42.7998 20.719 44.4868 22.8753 46.6358C25.6038 49.355 29.6996 49.3345 33.3333 49.3345C36.9672 49.3345 41.063 49.3548 43.7915 46.6358C45.9478 44.4868 46.0942 42.8 46.3872 39.4262C46.554 37.5047 46.6668 35.2505 46.6668 32.6672L46.6667 32.5302C46.6625 29.7875 46.6603 28.4161 46.0262 26.8883C45.3918 25.3604 44.29 24.2585 42.0862 22.0547L38.1038 18.0725ZM30.1627 19.4668C31.16 19.3838 32.2232 19.3333 33.3333 19.3333C34.1343 19.3333 35.009 19.6917 35.7468 20.4295L39.7292 24.4117C42.097 26.7796 42.6222 27.3824 42.9475 28.1663C43.2795 28.9659 43.3288 29.6212 43.3333 32.5353L43.3335 32.6672C43.3335 35.1533 43.225 37.3113 43.0663 39.1378C42.9103 40.9355 42.8188 41.8072 42.6027 42.5085C42.4423 43.0287 42.1868 43.529 41.4385 44.2747C40.673 45.0377 40.1802 45.2852 39.7 45.4348C37.735 46.0473 35.3782 46.0012 33.3333 46.0012C31.2887 46.0012 28.9317 46.0473 26.9668 45.4348C26.4867 45.2852 25.9938 45.0377 25.2283 44.2747C24.4799 43.529 24.2245 43.0287 24.0641 42.5083C23.8479 41.807 23.7565 40.9353 23.6004 39.1377C23.4418 37.3112 23.3333 35.1533 23.3333 32.6672C23.3333 30.182 23.4418 28.0247 23.6002 26.1986C23.7563 24.4002 23.8478 23.5278 24.064 22.826C24.2245 22.3054 24.48 21.805 25.2284 21.0593C25.9939 20.2965 26.4869 20.0488 26.9675 19.8991C27.6238 19.6947 28.4336 19.6107 30.1627 19.4668Z" fill="black"/>
</svg>
