<svg width="105" height="105" viewBox="0 0 105 105" fill="none" xmlns="http://www.w3.org/2000/svg">
<g clip-path="url(#clip0_31_239)">
<rect width="105" height="105" rx="14" fill="white"/>
<path d="M34.3966 0C34.8767 0 35.3372 0.190732 35.6767 0.530238C36.0162 0.869743 36.2069 1.33021 36.2069 1.81034C36.2069 2.29048 36.0162 2.75095 35.6767 3.09045C35.3372 3.42996 34.8767 3.62069 34.3966 3.62069C33.9164 3.62069 33.456 3.42996 33.1165 3.09045C32.7769 2.75095 32.5862 2.29048 32.5862 1.81034C32.5862 1.33021 32.7769 0.869743 33.1165 0.530238C33.456 0.190732 33.9164 0 34.3966 0ZM41.6379 0H43.4483V3.62069H41.6379C41.1578 3.62069 40.6973 3.42996 40.3578 3.09045C40.0183 2.75095 39.8276 2.29048 39.8276 1.81034C39.8276 1.33021 40.0183 0.869743 40.3578 0.530238C40.6973 0.190732 41.1578 0 41.6379 0ZM43.4483 0V3.62069H47.069C47.069 2.66042 46.6875 1.73949 46.0085 1.06048C45.3295 0.381464 44.4086 0 43.4483 0ZM52.5 0C52.9801 0 53.4406 0.190732 53.7801 0.530238C54.1196 0.869743 54.3104 1.33021 54.3104 1.81034C54.3104 2.29048 54.1196 2.75095 53.7801 3.09045C53.4406 3.42996 52.9801 3.62069 52.5 3.62069C52.0199 3.62069 51.5594 3.42996 51.2199 3.09045C50.8804 2.75095 50.6897 2.29048 50.6897 1.81034C50.6897 1.33021 50.8804 0.869743 51.2199 0.530238C51.5594 0.190732 52.0199 0 52.5 0ZM72.4138 1.81034V3.62069H68.7931V1.81034C68.7931 1.33021 68.9838 0.869743 69.3234 0.530238C69.6629 0.190732 70.1233 0 70.6035 0C71.0836 0 71.5441 0.190732 71.8836 0.530238C72.2231 0.869743 72.4138 1.33021 72.4138 1.81034ZM30.7759 3.62069C31.256 3.62069 31.7165 3.81142 32.056 4.15093C32.3955 4.49043 32.5862 4.9509 32.5862 5.43103C32.5862 5.91117 32.3955 6.37164 32.056 6.71114C31.7165 7.05065 31.256 7.24138 30.7759 7.24138C30.2957 7.24138 29.8353 7.05065 29.4958 6.71114C29.1563 6.37164 28.9655 5.91117 28.9655 5.43103C28.9655 4.9509 29.1563 4.49043 29.4958 4.15093C29.8353 3.81142 30.2957 3.62069 30.7759 3.62069ZM38.0173 3.62069C38.4974 3.62069 38.9579 3.81142 39.2974 4.15093C39.6369 4.49043 39.8276 4.9509 39.8276 5.43103C39.8276 5.91117 39.6369 6.37164 39.2974 6.71114C38.9579 7.05065 38.4974 7.24138 38.0173 7.24138C37.5371 7.24138 37.0766 7.05065 36.7371 6.71114C36.3976 6.37164 36.2069 5.91117 36.2069 5.43103C36.2069 4.9509 36.3976 4.49043 36.7371 4.15093C37.0766 3.81142 37.5371 3.62069 38.0173 3.62069ZM47.069 7.24138V3.62069H43.4483C43.4483 4.58096 43.8298 5.50189 44.5088 6.1809C45.1878 6.85991 46.1087 7.24138 47.069 7.24138ZM48.8793 7.24138H47.069V3.62069H48.8793C49.3595 3.62069 49.8199 3.81142 50.1594 4.15093C50.4989 4.49043 50.6897 4.9509 50.6897 5.43103C50.6897 5.91117 50.4989 6.37164 50.1594 6.71114C49.8199 7.05065 49.3595 7.24138 48.8793 7.24138ZM72.4138 3.62069H68.7931V7.24138H72.4138V3.62069ZM74.2242 7.24138H72.4138V3.62069H74.2242C74.7043 3.62069 75.1647 3.81142 75.5043 4.15093C75.8438 4.49043 76.0345 4.9509 76.0345 5.43103C76.0345 5.91117 75.8438 6.37164 75.5043 6.71114C75.1647 7.05065 74.7043 7.24138 74.2242 7.24138ZM43.4483 9.05172V10.8621H39.8276V9.05172C39.8276 8.57159 40.0183 8.11112 40.3578 7.77162C40.6973 7.43211 41.1578 7.24138 41.6379 7.24138C42.1181 7.24138 42.5785 7.43211 42.918 7.77162C43.2576 8.11112 43.4483 8.57159 43.4483 9.05172ZM56.1207 7.24138C56.6008 7.24138 57.0613 7.43211 57.4008 7.77162C57.7403 8.11112 57.931 8.57159 57.931 9.05172C57.931 9.53186 57.7403 9.99233 57.4008 10.3318C57.0613 10.6713 56.6008 10.8621 56.1207 10.8621C55.6406 10.8621 55.1801 10.6713 54.8406 10.3318C54.5011 9.99233 54.3104 9.53186 54.3104 9.05172C54.3104 8.57159 54.5011 8.11112 54.8406 7.77162C55.1801 7.43211 55.6406 7.24138 56.1207 7.24138ZM65.1724 10.8621H68.7931V7.24138C67.8328 7.24138 66.9119 7.62284 66.2329 8.30186C65.5539 8.98087 65.1724 9.9018 65.1724 10.8621ZM72.4138 7.24138H68.7931V10.8621C69.7534 10.8621 70.6743 10.4806 71.3533 9.80159C72.0323 9.12258 72.4138 8.20165 72.4138 7.24138ZM43.4483 10.8621H39.8276V14.4828H43.4483V10.8621ZM50.6897 12.6724V14.4828H47.069V12.6724C47.069 12.1923 47.2597 11.7318 47.5992 11.3923C47.9387 11.0528 48.3992 10.8621 48.8793 10.8621C49.3595 10.8621 49.8199 11.0528 50.1594 11.3923C50.4989 11.7318 50.6897 12.1923 50.6897 12.6724ZM61.5517 12.6724V14.4828H57.931V12.6724C57.931 12.1923 58.1218 11.7318 58.4613 11.3923C58.8008 11.0528 59.2613 10.8621 59.7414 10.8621C60.2215 10.8621 60.682 11.0528 61.0215 11.3923C61.361 11.7318 61.5517 12.1923 61.5517 12.6724ZM68.7931 10.8621H65.1724V14.4828H68.7931V10.8621ZM30.7759 14.4828C31.256 14.4828 31.7165 14.6735 32.056 15.013C32.3955 15.3525 32.5862 15.813 32.5862 16.2931C32.5862 16.7732 32.3955 17.2337 32.056 17.5732C31.7165 17.9127 31.256 18.1034 30.7759 18.1034C30.2957 18.1034 29.8353 17.9127 29.4958 17.5732C29.1563 17.2337 28.9655 16.7732 28.9655 16.2931C28.9655 15.813 29.1563 15.3525 29.4958 15.013C29.8353 14.6735 30.2957 14.4828 30.7759 14.4828ZM38.0173 14.4828H39.8276V18.1034H38.0173C37.5371 18.1034 37.0766 17.9127 36.7371 17.5732C36.3976 17.2337 36.2069 16.7732 36.2069 16.2931C36.2069 15.813 36.3976 15.3525 36.7371 15.013C37.0766 14.6735 37.5371 14.4828 38.0173 14.4828ZM43.4483 14.4828H39.8276V18.1034C40.7879 18.1034 41.7088 17.722 42.3878 17.043C43.0668 16.364 43.4483 15.443 43.4483 14.4828ZM47.069 16.2931V14.4828H50.6897V16.2931C50.6897 16.7732 50.4989 17.2337 50.1594 17.5732C49.8199 17.9127 49.3595 18.1034 48.8793 18.1034C48.3992 18.1034 47.9387 17.9127 47.5992 17.5732C47.2597 17.2337 47.069 16.7732 47.069 16.2931ZM61.5517 14.4828H57.931V18.1034H61.5517V14.4828ZM65.1724 14.4828H61.5517V18.1034H65.1724V14.4828ZM68.7931 14.4828H65.1724V18.1034H68.7931V14.4828ZM72.4138 14.4828H68.7931V18.1034H72.4138V14.4828ZM72.4138 14.4828V18.1034H76.0345C76.0345 17.1432 75.653 16.2222 74.974 15.5432C74.295 14.8642 73.3741 14.4828 72.4138 14.4828ZM34.3966 18.1034C34.8767 18.1034 35.3372 18.2942 35.6767 18.6337C36.0162 18.9732 36.2069 19.4337 36.2069 19.9138C36.2069 20.3939 36.0162 20.8544 35.6767 21.1939C35.3372 21.5334 34.8767 21.7241 34.3966 21.7241C33.9164 21.7241 33.456 21.5334 33.1165 21.1939C32.7769 20.8544 32.5862 20.3939 32.5862 19.9138C32.5862 19.4337 32.7769 18.9732 33.1165 18.6337C33.456 18.2942 33.9164 18.1034 34.3966 18.1034ZM50.6897 21.7241H54.3104V18.1034C53.3501 18.1034 52.4292 18.4849 51.7501 19.1639C51.0711 19.8429 50.6897 20.7639 50.6897 21.7241ZM57.931 18.1034H54.3104V21.7241H57.931V18.1034ZM61.5517 18.1034H57.931V21.7241H61.5517V18.1034ZM72.4138 21.7241V18.1034H68.7931C68.7931 19.0637 69.1746 19.9847 69.8536 20.6637C70.5326 21.3427 71.4535 21.7241 72.4138 21.7241ZM76.0345 18.1034H72.4138V21.7241H76.0345V18.1034ZM30.7759 21.7241C31.256 21.7241 31.7165 21.9149 32.056 22.2544C32.3955 22.5939 32.5862 23.0543 32.5862 23.5345C32.5862 24.0146 32.3955 24.4751 32.056 24.8146C31.7165 25.1541 31.256 25.3448 30.7759 25.3448C30.2957 25.3448 29.8353 25.1541 29.4958 24.8146C29.1563 24.4751 28.9655 24.0146 28.9655 23.5345C28.9655 23.0543 29.1563 22.5939 29.4958 22.2544C29.8353 21.9149 30.2957 21.7241 30.7759 21.7241ZM38.0173 21.7241C38.4974 21.7241 38.9579 21.9149 39.2974 22.2544C39.6369 22.5939 39.8276 23.0543 39.8276 23.5345C39.8276 24.0146 39.6369 24.4751 39.2974 24.8146C38.9579 25.1541 38.4974 25.3448 38.0173 25.3448C37.5371 25.3448 37.0766 25.1541 36.7371 24.8146C36.3976 24.4751 36.2069 24.0146 36.2069 23.5345C36.2069 23.0543 36.3976 22.5939 36.7371 22.2544C37.0766 21.9149 37.5371 21.7241 38.0173 21.7241ZM45.2586 21.7241C45.7388 21.7241 46.1992 21.9149 46.5387 22.2544C46.8782 22.5939 47.069 23.0543 47.069 23.5345C47.069 24.0146 46.8782 24.4751 46.5387 24.8146C46.1992 25.1541 45.7388 25.3448 45.2586 25.3448C44.7785 25.3448 44.318 25.1541 43.9785 24.8146C43.639 24.4751 43.4483 24.0146 43.4483 23.5345C43.4483 23.0543 43.639 22.5939 43.9785 22.2544C44.318 21.9149 44.7785 21.7241 45.2586 21.7241ZM50.6897 23.5345V21.7241H54.3104V23.5345C54.3104 24.0146 54.1196 24.4751 53.7801 24.8146C53.4406 25.1541 52.9801 25.3448 52.5 25.3448C52.0199 25.3448 51.5594 25.1541 51.2199 24.8146C50.8804 24.4751 50.6897 24.0146 50.6897 23.5345ZM57.931 23.5345V21.7241H61.5517V23.5345C61.5517 24.0146 61.361 24.4751 61.0215 24.8146C60.682 25.1541 60.2215 25.3448 59.7414 25.3448C59.2613 25.3448 58.8008 25.1541 58.4613 24.8146C58.1218 24.4751 57.931 24.0146 57.931 23.5345ZM68.7931 23.5345V25.3448H65.1724V23.5345C65.1724 23.0543 65.3632 22.5939 65.7027 22.2544C66.0422 21.9149 66.5026 21.7241 66.9828 21.7241C67.4629 21.7241 67.9234 21.9149 68.2629 22.2544C68.6024 22.5939 68.7931 23.0543 68.7931 23.5345ZM76.0345 21.7241H72.4138V25.3448H76.0345V21.7241ZM41.6379 25.3448C42.1181 25.3448 42.5785 25.5356 42.918 25.8751C43.2576 26.2146 43.4483 26.675 43.4483 27.1552C43.4483 27.6353 43.2576 28.0958 42.918 28.4353C42.5785 28.7748 42.1181 28.9655 41.6379 28.9655C41.1578 28.9655 40.6973 28.7748 40.3578 28.4353C40.0183 28.0958 39.8276 27.6353 39.8276 27.1552C39.8276 26.675 40.0183 26.2146 40.3578 25.8751C40.6973 25.5356 41.1578 25.3448 41.6379 25.3448ZM56.1207 25.3448C56.6008 25.3448 57.0613 25.5356 57.4008 25.8751C57.7403 26.2146 57.931 26.675 57.931 27.1552C57.931 27.6353 57.7403 28.0958 57.4008 28.4353C57.0613 28.7748 56.6008 28.9655 56.1207 28.9655C55.6406 28.9655 55.1801 28.7748 54.8406 28.4353C54.5011 28.0958 54.3104 27.6353 54.3104 27.1552C54.3104 26.675 54.5011 26.2146 54.8406 25.8751C55.1801 25.5356 55.6406 25.3448 56.1207 25.3448ZM63.3621 25.3448H65.1724V28.9655H63.3621C62.8819 28.9655 62.4215 28.7748 62.082 28.4353C61.7425 28.0958 61.5517 27.6353 61.5517 27.1552C61.5517 26.675 61.7425 26.2146 62.082 25.8751C62.4215 25.5356 62.8819 25.3448 63.3621 25.3448ZM68.7931 25.3448H65.1724V28.9655H68.7931V25.3448ZM72.4138 25.3448H68.7931V28.9655H72.4138V25.3448ZM76.0345 25.3448H72.4138V28.9655H76.0345V25.3448ZM3.6207 30.7759V32.5862H1.19497e-05V30.7759C1.19497e-05 30.2957 0.190744 29.8353 0.53025 29.4958C0.869755 29.1562 1.33022 28.9655 1.81036 28.9655C2.29049 28.9655 2.75096 29.1562 3.09046 29.4958C3.42997 29.8353 3.6207 30.2957 3.6207 30.7759ZM9.05174 28.9655C9.53187 28.9655 9.99234 29.1562 10.3318 29.4958C10.6713 29.8353 10.8621 30.2957 10.8621 30.7759C10.8621 31.256 10.6713 31.7165 10.3318 32.056C9.99234 32.3955 9.53187 32.5862 9.05174 32.5862C8.5716 32.5862 8.11113 32.3955 7.77163 32.056C7.43212 31.7165 7.24139 31.256 7.24139 30.7759C7.24139 30.2957 7.43212 29.8353 7.77163 29.4958C8.11113 29.1562 8.5716 28.9655 9.05174 28.9655ZM18.1035 30.7759V32.5862H14.4828V30.7759C14.4828 30.2957 14.6735 29.8353 15.013 29.4958C15.3525 29.1562 15.813 28.9655 16.2931 28.9655C16.7732 28.9655 17.2337 29.1562 17.5732 29.4958C17.9127 29.8353 18.1035 30.2957 18.1035 30.7759ZM23.5345 28.9655C24.0146 28.9655 24.4751 29.1562 24.8146 29.4958C25.1541 29.8353 25.3448 30.2957 25.3448 30.7759C25.3448 31.256 25.1541 31.7165 24.8146 32.056C24.4751 32.3955 24.0146 32.5862 23.5345 32.5862C23.0544 32.5862 22.5939 32.3955 22.2544 32.056C21.9149 31.7165 21.7241 31.256 21.7241 30.7759C21.7241 30.2957 21.9149 29.8353 22.2544 29.4958C22.5939 29.1562 23.0544 28.9655 23.5345 28.9655ZM32.5862 32.5862H36.2069V28.9655C35.2466 28.9655 34.3257 29.347 33.6467 30.026C32.9677 30.705 32.5862 31.6259 32.5862 32.5862ZM38.0173 32.5862H36.2069V28.9655H38.0173C38.4974 28.9655 38.9579 29.1562 39.2974 29.4958C39.6369 29.8353 39.8276 30.2957 39.8276 30.7759C39.8276 31.256 39.6369 31.7165 39.2974 32.056C38.9579 32.3955 38.4974 32.5862 38.0173 32.5862ZM61.5517 30.7759V32.5862H57.931V30.7759C57.931 30.2957 58.1218 29.8353 58.4613 29.4958C58.8008 29.1562 59.2613 28.9655 59.7414 28.9655C60.2215 28.9655 60.682 29.1562 61.0215 29.4958C61.361 29.8353 61.5517 30.2957 61.5517 30.7759ZM76.0345 28.9655H72.4138V32.5862H76.0345V28.9655ZM88.7069 28.9655C89.187 28.9655 89.6475 29.1562 89.987 29.4958C90.3265 29.8353 90.5173 30.2957 90.5173 30.7759C90.5173 31.256 90.3265 31.7165 89.987 32.056C89.6475 32.3955 89.187 32.5862 88.7069 32.5862C88.2268 32.5862 87.7663 32.3955 87.4268 32.056C87.0873 31.7165 86.8966 31.256 86.8966 30.7759C86.8966 30.2957 87.0873 29.8353 87.4268 29.4958C87.7663 29.1562 88.2268 28.9655 88.7069 28.9655ZM99.569 28.9655C100.049 28.9655 100.51 29.1562 100.849 29.4958C101.189 29.8353 101.379 30.2957 101.379 30.7759C101.379 31.256 101.189 31.7165 100.849 32.056C100.51 32.3955 100.049 32.5862 99.569 32.5862C99.0888 32.5862 98.6284 32.3955 98.2889 32.056C97.9494 31.7165 97.7586 31.256 97.7586 30.7759C97.7586 30.2957 97.9494 29.8353 98.2889 29.4958C98.6284 29.1562 99.0888 28.9655 99.569 28.9655ZM3.6207 32.5862H1.19497e-05V36.2069H3.6207V32.5862ZM18.1035 36.2069V32.5862H14.4828C14.4828 33.5465 14.8642 34.4674 15.5432 35.1464C16.2223 35.8254 17.1432 36.2069 18.1035 36.2069ZM19.9138 36.2069H18.1035V32.5862H19.9138C20.3939 32.5862 20.8544 32.7769 21.1939 33.1164C21.5334 33.4559 21.7241 33.9164 21.7241 34.3965C21.7241 34.8767 21.5334 35.3372 21.1939 35.6767C20.8544 36.0162 20.3939 36.2069 19.9138 36.2069ZM36.2069 32.5862H32.5862V36.2069H36.2069V32.5862ZM43.4483 36.2069H47.069V32.5862C46.1087 32.5862 45.1878 32.9677 44.5088 33.6467C43.8298 34.3257 43.4483 35.2466 43.4483 36.2069ZM48.8793 36.2069H47.069V32.5862H48.8793C49.3595 32.5862 49.8199 32.7769 50.1594 33.1164C50.4989 33.4559 50.6897 33.9164 50.6897 34.3965C50.6897 34.8767 50.4989 35.3372 50.1594 35.6767C49.8199 36.0162 49.3595 36.2069 48.8793 36.2069ZM54.3104 36.2069H57.931V32.5862C56.9708 32.5862 56.0498 32.9677 55.3708 33.6467C54.6918 34.3257 54.3104 35.2466 54.3104 36.2069ZM61.5517 32.5862H57.931V36.2069H61.5517V32.5862ZM76.0345 36.2069V32.5862H72.4138C72.4138 33.5465 72.7953 34.4674 73.4743 35.1464C74.1533 35.8254 75.0742 36.2069 76.0345 36.2069ZM79.6552 32.5862H76.0345V36.2069H79.6552V32.5862ZM81.4655 36.2069H79.6552V32.5862H81.4655C81.9457 32.5862 82.4061 32.7769 82.7456 33.1164C83.0851 33.4559 83.2759 33.9164 83.2759 34.3965C83.2759 34.8767 83.0851 35.3372 82.7456 35.6767C82.4061 36.0162 81.9457 36.2069 81.4655 36.2069ZM92.3276 32.5862C92.8077 32.5862 93.2682 32.7769 93.6077 33.1164C93.9472 33.4559 94.1379 33.9164 94.1379 34.3965C94.1379 34.8767 93.9472 35.3372 93.6077 35.6767C93.2682 36.0162 92.8077 36.2069 92.3276 36.2069C91.8475 36.2069 91.387 36.0162 91.0475 35.6767C90.708 35.3372 90.5173 34.8767 90.5173 34.3965C90.5173 33.9164 90.708 33.4559 91.0475 33.1164C91.387 32.7769 91.8475 32.5862 92.3276 32.5862ZM105 34.3965V36.2069H101.379V34.3965C101.379 33.9164 101.57 33.4559 101.91 33.1164C102.249 32.7769 102.71 32.5862 103.19 32.5862C103.67 32.5862 104.13 32.7769 104.47 33.1164C104.809 33.4559 105 33.9164 105 34.3965ZM3.6207 39.8276V36.2069H1.19497e-05C1.19497e-05 37.1672 0.381476 38.0881 1.06049 38.7671C1.7395 39.4461 2.66043 39.8276 3.6207 39.8276ZM7.24139 36.2069H3.6207V39.8276H7.24139V36.2069ZM10.8621 36.2069H7.24139V39.8276H10.8621V36.2069ZM12.6724 39.8276H10.8621V36.2069H12.6724C13.1526 36.2069 13.613 36.3976 13.9525 36.7371C14.292 37.0766 14.4828 37.5371 14.4828 38.0172C14.4828 38.4974 14.292 38.9578 13.9525 39.2973C13.613 39.6369 13.1526 39.8276 12.6724 39.8276ZM23.5345 36.2069C24.0146 36.2069 24.4751 36.3976 24.8146 36.7371C25.1541 37.0766 25.3448 37.5371 25.3448 38.0172C25.3448 38.4974 25.1541 38.9578 24.8146 39.2973C24.4751 39.6369 24.0146 39.8276 23.5345 39.8276C23.0544 39.8276 22.5939 39.6369 22.2544 39.2973C21.9149 38.9578 21.7241 38.4974 21.7241 38.0172C21.7241 37.5371 21.9149 37.0766 22.2544 36.7371C22.5939 36.3976 23.0544 36.2069 23.5345 36.2069ZM30.7759 36.2069H32.5862V39.8276H30.7759C30.2957 39.8276 29.8353 39.6369 29.4958 39.2973C29.1563 38.9578 28.9655 38.4974 28.9655 38.0172C28.9655 37.5371 29.1563 37.0766 29.4958 36.7371C29.8353 36.3976 30.2957 36.2069 30.7759 36.2069ZM36.2069 36.2069H32.5862V39.8276H36.2069V36.2069ZM38.0173 39.8276H36.2069V36.2069H38.0173C38.4974 36.2069 38.9579 36.3976 39.2974 36.7371C39.6369 37.0766 39.8276 37.5371 39.8276 38.0172C39.8276 38.4974 39.6369 38.9578 39.2974 39.2973C38.9579 39.6369 38.4974 39.8276 38.0173 39.8276ZM47.069 36.2069H43.4483V39.8276H47.069V36.2069ZM50.6897 39.8276H54.3104V36.2069C53.3501 36.2069 52.4292 36.5884 51.7501 37.2674C51.0711 37.9464 50.6897 38.8673 50.6897 39.8276ZM57.931 36.2069H54.3104V39.8276H57.931V36.2069ZM61.5517 36.2069H57.931V39.8276H61.5517V36.2069ZM61.5517 36.2069V39.8276H65.1724C65.1724 38.8673 64.791 37.9464 64.1119 37.2674C63.4329 36.5884 62.512 36.2069 61.5517 36.2069ZM79.6552 36.2069H76.0345V39.8276H79.6552V36.2069ZM85.0862 36.2069C85.5664 36.2069 86.0268 36.3976 86.3663 36.7371C86.7058 37.0766 86.8966 37.5371 86.8966 38.0172C86.8966 38.4974 86.7058 38.9578 86.3663 39.2973C86.0268 39.6369 85.5664 39.8276 85.0862 39.8276C84.6061 39.8276 84.1456 39.6369 83.8061 39.2973C83.4666 38.9578 83.2759 38.4974 83.2759 38.0172C83.2759 37.5371 83.4666 37.0766 83.8061 36.7371C84.1456 36.3976 84.6061 36.2069 85.0862 36.2069ZM95.9483 36.2069H97.7586V39.8276H95.9483C95.4682 39.8276 95.0077 39.6369 94.6682 39.2973C94.3287 38.9578 94.1379 38.4974 94.1379 38.0172C94.1379 37.5371 94.3287 37.0766 94.6682 36.7371C95.0077 36.3976 95.4682 36.2069 95.9483 36.2069ZM101.379 36.2069H97.7586V39.8276H101.379V36.2069ZM105 36.2069H101.379V39.8276C102.34 39.8276 103.261 39.4461 103.94 38.7671C104.619 38.0881 105 37.1672 105 36.2069ZM7.24139 39.8276H3.6207V43.4483H7.24139V39.8276ZM21.7241 41.6379V43.4483H18.1035V41.6379C18.1035 41.1578 18.2942 40.6973 18.6337 40.3578C18.9732 40.0183 19.4337 39.8276 19.9138 39.8276C20.3939 39.8276 20.8544 40.0183 21.1939 40.3578C21.5334 40.6973 21.7241 41.1578 21.7241 41.6379ZM28.9655 41.6379V43.4483H25.3448V41.6379C25.3448 41.1578 25.5356 40.6973 25.8751 40.3578C26.2146 40.0183 26.6751 39.8276 27.1552 39.8276C27.6353 39.8276 28.0958 40.0183 28.4353 40.3578C28.7748 40.6973 28.9655 41.1578 28.9655 41.6379ZM39.8276 43.4483H43.4483V39.8276C42.488 39.8276 41.5671 40.209 40.8881 40.8881C40.2091 41.5671 39.8276 42.488 39.8276 43.4483ZM47.069 39.8276H43.4483V43.4483H47.069V39.8276ZM50.6897 39.8276H47.069V43.4483H50.6897V39.8276ZM54.3104 39.8276H50.6897V43.4483H54.3104V39.8276ZM61.5517 43.4483V39.8276H57.931C57.931 40.7878 58.3125 41.7088 58.9915 42.3878C59.6705 43.0668 60.5915 43.4483 61.5517 43.4483ZM65.1724 39.8276H61.5517V43.4483H65.1724V39.8276ZM68.7931 39.8276H65.1724V43.4483H68.7931V39.8276ZM72.4138 39.8276H68.7931V43.4483H72.4138V39.8276ZM76.0345 39.8276H72.4138V43.4483H76.0345V39.8276ZM79.6552 39.8276H76.0345V43.4483H79.6552V39.8276ZM79.6552 39.8276V43.4483H83.2759C83.2759 42.488 82.8944 41.5671 82.2154 40.8881C81.5364 40.209 80.6154 39.8276 79.6552 39.8276ZM88.7069 39.8276C89.187 39.8276 89.6475 40.0183 89.987 40.3578C90.3265 40.6973 90.5173 41.1578 90.5173 41.6379C90.5173 42.1181 90.3265 42.5785 89.987 42.918C89.6475 43.2575 89.187 43.4483 88.7069 43.4483C88.2268 43.4483 87.7663 43.2575 87.4268 42.918C87.0873 42.5785 86.8966 42.1181 86.8966 41.6379C86.8966 41.1578 87.0873 40.6973 87.4268 40.3578C87.7663 40.0183 88.2268 39.8276 88.7069 39.8276ZM101.379 39.8276H97.7586V43.4483H101.379V39.8276ZM3.6207 45.2586V43.4483H7.24139V45.2586C7.24139 45.7388 7.05066 46.1992 6.71115 46.5387C6.37165 46.8782 5.91118 47.069 5.43105 47.069C4.95091 47.069 4.49044 46.8782 4.15094 46.5387C3.81143 46.1992 3.6207 45.7388 3.6207 45.2586ZM21.7241 47.069V43.4483H18.1035C18.1035 44.4085 18.4849 45.3295 19.1639 46.0085C19.8429 46.6875 20.7639 47.069 21.7241 47.069ZM25.3448 43.4483H21.7241V47.069H25.3448V43.4483ZM28.9655 43.4483H25.3448V47.069H28.9655V43.4483ZM28.9655 43.4483V47.069H32.5862C32.5862 46.1087 32.2048 45.1878 31.5257 44.5088C30.8467 43.8297 29.9258 43.4483 28.9655 43.4483ZM38.0173 43.4483H39.8276V47.069H38.0173C37.5371 47.069 37.0766 46.8782 36.7371 46.5387C36.3976 46.1992 36.2069 45.7388 36.2069 45.2586C36.2069 44.7785 36.3976 44.318 36.7371 43.9785C37.0766 43.639 37.5371 43.4483 38.0173 43.4483ZM43.4483 43.4483H39.8276V47.069H43.4483V43.4483ZM47.069 43.4483H43.4483V47.069H47.069V43.4483ZM54.3104 43.4483H50.6897V47.069H54.3104V43.4483ZM54.3104 43.4483V47.069H57.931C57.931 46.1087 57.5496 45.1878 56.8706 44.5088C56.1916 43.8297 55.2706 43.4483 54.3104 43.4483ZM72.4138 47.069V43.4483H68.7931C68.7931 44.4085 69.1746 45.3295 69.8536 46.0085C70.5326 46.6875 71.4535 47.069 72.4138 47.069ZM76.0345 43.4483H72.4138V47.069H76.0345V43.4483ZM79.6552 43.4483H76.0345V47.069H79.6552V43.4483ZM83.2759 43.4483H79.6552V47.069H83.2759V43.4483ZM94.1379 45.2586V47.069H90.5173V45.2586C90.5173 44.7785 90.708 44.318 91.0475 43.9785C91.387 43.639 91.8475 43.4483 92.3276 43.4483C92.8077 43.4483 93.2682 43.639 93.6077 43.9785C93.9472 44.318 94.1379 44.7785 94.1379 45.2586ZM101.379 47.069V43.4483H97.7586C97.7586 44.4085 98.1401 45.3295 98.8191 46.0085C99.4981 46.6875 100.419 47.069 101.379 47.069ZM101.379 43.4483V47.069H105C105 46.1087 104.619 45.1878 103.94 44.5088C103.261 43.8297 102.34 43.4483 101.379 43.4483ZM1.81036 47.069C2.29049 47.069 2.75096 47.2597 3.09046 47.5992C3.42997 47.9387 3.6207 48.3992 3.6207 48.8793C3.6207 49.3594 3.42997 49.8199 3.09046 50.1594C2.75096 50.4989 2.29049 50.6897 1.81036 50.6897C1.33022 50.6897 0.869755 50.4989 0.53025 50.1594C0.190744 49.8199 1.19497e-05 49.3594 1.19497e-05 48.8793C1.19497e-05 48.3992 0.190744 47.9387 0.53025 47.5992C0.869755 47.2597 1.33022 47.069 1.81036 47.069ZM32.5862 47.069H28.9655V50.6897H32.5862V47.069ZM47.069 47.069H43.4483V50.6897H47.069V47.069ZM54.3104 50.6897V47.069H50.6897C50.6897 48.0292 51.0711 48.9502 51.7501 49.6292C52.4292 50.3082 53.3501 50.6897 54.3104 50.6897ZM57.931 47.069H54.3104V50.6897C55.2706 50.6897 56.1916 50.3082 56.8706 49.6292C57.5496 48.9502 57.931 48.0292 57.931 47.069ZM76.0345 47.069H72.4138V50.6897H76.0345V47.069ZM79.6552 47.069H76.0345V50.6897H79.6552V47.069ZM83.2759 47.069H79.6552V50.6897H83.2759V47.069ZM94.1379 47.069H90.5173V50.6897H94.1379V47.069ZM105 47.069H101.379V50.6897H105V47.069ZM7.24139 52.5V54.3103H3.6207V52.5C3.6207 52.0199 3.81143 51.5594 4.15094 51.2199C4.49044 50.8804 4.95091 50.6897 5.43105 50.6897C5.91118 50.6897 6.37165 50.8804 6.71115 51.2199C7.05066 51.5594 7.24139 52.0199 7.24139 52.5ZM12.6724 50.6897C13.1526 50.6897 13.613 50.8804 13.9525 51.2199C14.292 51.5594 14.4828 52.0199 14.4828 52.5C14.4828 52.9801 14.292 53.4406 13.9525 53.7801C13.613 54.1196 13.1526 54.3103 12.6724 54.3103C12.1923 54.3103 11.7318 54.1196 11.3923 53.7801C11.0528 53.4406 10.8621 52.9801 10.8621 52.5C10.8621 52.0199 11.0528 51.5594 11.3923 51.2199C11.7318 50.8804 12.1923 50.6897 12.6724 50.6897ZM19.9138 50.6897H21.7241V54.3103H19.9138C19.4337 54.3103 18.9732 54.1196 18.6337 53.7801C18.2942 53.4406 18.1035 52.9801 18.1035 52.5C18.1035 52.0199 18.2942 51.5594 18.6337 51.2199C18.9732 50.8804 19.4337 50.6897 19.9138 50.6897ZM25.3448 50.6897H21.7241V54.3103H25.3448V50.6897ZM28.9655 50.6897H25.3448V54.3103H28.9655V50.6897ZM32.5862 50.6897H28.9655V54.3103H32.5862V50.6897ZM36.2069 50.6897H32.5862V54.3103H36.2069V50.6897ZM39.8276 50.6897H36.2069V54.3103H39.8276V50.6897ZM43.4483 50.6897H39.8276V54.3103H43.4483V50.6897ZM47.069 50.6897H43.4483V54.3103H47.069V50.6897ZM48.8793 54.3103H47.069V50.6897H48.8793C49.3595 50.6897 49.8199 50.8804 50.1594 51.2199C50.4989 51.5594 50.6897 52.0199 50.6897 52.5C50.6897 52.9801 50.4989 53.4406 50.1594 53.7801C49.8199 54.1196 49.3595 54.3103 48.8793 54.3103ZM65.1724 52.5V54.3103H61.5517V52.5C61.5517 52.0199 61.7425 51.5594 62.082 51.2199C62.4215 50.8804 62.8819 50.6897 63.3621 50.6897C63.8422 50.6897 64.3027 50.8804 64.6422 51.2199C64.9817 51.5594 65.1724 52.0199 65.1724 52.5ZM76.0345 50.6897H72.4138V54.3103H76.0345V50.6897ZM79.6552 50.6897H76.0345V54.3103H79.6552V50.6897ZM83.2759 50.6897H79.6552V54.3103C80.6154 54.3103 81.5364 53.9289 82.2154 53.2499C82.8944 52.5709 83.2759 51.6499 83.2759 50.6897ZM94.1379 50.6897H90.5173V54.3103H94.1379V50.6897ZM97.7586 54.3103H101.379V50.6897C100.419 50.6897 99.4981 51.0711 98.8191 51.7501C98.1401 52.4291 97.7586 53.3501 97.7586 54.3103ZM105 50.6897H101.379V54.3103C102.34 54.3103 103.261 53.9289 103.94 53.2499C104.619 52.5709 105 51.6499 105 50.6897ZM1.19497e-05 57.931H3.6207V54.3103C2.66043 54.3103 1.7395 54.6918 1.06049 55.3708C0.381476 56.0498 1.19497e-05 56.9708 1.19497e-05 57.931ZM7.24139 54.3103H3.6207V57.931H7.24139V54.3103ZM28.9655 54.3103H25.3448V57.931H28.9655V54.3103ZM32.5862 54.3103H28.9655V57.931H32.5862V54.3103ZM36.2069 54.3103H32.5862V57.931C33.5465 57.931 34.4674 57.5496 35.1464 56.8706C35.8254 56.1915 36.2069 55.2706 36.2069 54.3103ZM43.4483 57.931V54.3103H39.8276C39.8276 55.2706 40.2091 56.1915 40.8881 56.8706C41.5671 57.5496 42.488 57.931 43.4483 57.931ZM47.069 54.3103H43.4483V57.931C44.4086 57.931 45.3295 57.5496 46.0085 56.8706C46.6875 56.1915 47.069 55.2706 47.069 54.3103ZM56.1207 54.3103C56.6008 54.3103 57.0613 54.5011 57.4008 54.8406C57.7403 55.1801 57.931 55.6406 57.931 56.1207C57.931 56.6008 57.7403 57.0613 57.4008 57.4008C57.0613 57.7403 56.6008 57.931 56.1207 57.931C55.6406 57.931 55.1801 57.7403 54.8406 57.4008C54.5011 57.0613 54.3104 56.6008 54.3104 56.1207C54.3104 55.6406 54.5011 55.1801 54.8406 54.8406C55.1801 54.5011 55.6406 54.3103 56.1207 54.3103ZM65.1724 54.3103H61.5517V57.931H65.1724V54.3103ZM76.0345 54.3103H72.4138V57.931H76.0345V54.3103ZM88.7069 54.3103H90.5173V57.931H88.7069C88.2268 57.931 87.7663 57.7403 87.4268 57.4008C87.0873 57.0613 86.8966 56.6008 86.8966 56.1207C86.8966 55.6406 87.0873 55.1801 87.4268 54.8406C87.7663 54.5011 88.2268 54.3103 88.7069 54.3103ZM94.1379 54.3103H90.5173V57.931H94.1379V54.3103ZM101.379 54.3103H97.7586V57.931H101.379V54.3103ZM3.6207 61.5517V57.931H1.19497e-05C1.19497e-05 58.8913 0.381476 59.8122 1.06049 60.4912C1.7395 61.1703 2.66043 61.5517 3.6207 61.5517ZM7.24139 57.931H3.6207V61.5517C4.58097 61.5517 5.5019 61.1703 6.18092 60.4912C6.85993 59.8122 7.24139 58.8913 7.24139 57.931ZM19.9138 57.931H21.7241V61.5517H19.9138C19.4337 61.5517 18.9732 61.361 18.6337 61.0215C18.2942 60.682 18.1035 60.2215 18.1035 59.7414C18.1035 59.2612 18.2942 58.8008 18.6337 58.4613C18.9732 58.1218 19.4337 57.931 19.9138 57.931ZM25.3448 57.931H21.7241V61.5517H25.3448V57.931ZM28.9655 57.931H25.3448V61.5517H28.9655V57.931ZM32.5862 57.931H28.9655V61.5517C29.9258 61.5517 30.8467 61.1703 31.5257 60.4912C32.2048 59.8122 32.5862 58.8913 32.5862 57.931ZM57.931 61.5517H61.5517V57.931C60.5915 57.931 59.6705 58.3125 58.9915 58.9915C58.3125 59.6705 57.931 60.5915 57.931 61.5517ZM65.1724 57.931H61.5517V61.5517H65.1724V57.931ZM68.7931 57.931H65.1724V61.5517H68.7931V57.931ZM72.4138 57.931H68.7931V61.5517H72.4138V57.931ZM76.0345 57.931H72.4138V61.5517H76.0345V57.931ZM79.6552 57.931H76.0345V61.5517H79.6552V57.931ZM79.6552 57.931V61.5517H83.2759C83.2759 60.5915 82.8944 59.6705 82.2154 58.9915C81.5364 58.3125 80.6154 57.931 79.6552 57.931ZM94.1379 57.931H90.5173V61.5517H94.1379V57.931ZM101.379 61.5517V57.931H97.7586C97.7586 58.8913 98.1401 59.8122 98.8191 60.4912C99.4981 61.1703 100.419 61.5517 101.379 61.5517ZM101.379 57.931V61.5517H105C105 60.5915 104.619 59.6705 103.94 58.9915C103.261 58.3125 102.34 57.931 101.379 57.931ZM10.8621 65.1724H14.4828V61.5517C13.5225 61.5517 12.6016 61.9332 11.9226 62.6122C11.2435 63.2912 10.8621 64.2121 10.8621 65.1724ZM16.2931 65.1724H14.4828V61.5517H16.2931C16.7732 61.5517 17.2337 61.7425 17.5732 62.082C17.9127 62.4215 18.1035 62.8819 18.1035 63.3621C18.1035 63.8422 17.9127 64.3027 17.5732 64.6422C17.2337 64.9817 16.7732 65.1724 16.2931 65.1724ZM25.3448 63.3621V61.5517H28.9655V63.3621C28.9655 63.8422 28.7748 64.3027 28.4353 64.6422C28.0958 64.9817 27.6353 65.1724 27.1552 65.1724C26.6751 65.1724 26.2146 64.9817 25.8751 64.6422C25.5356 64.3027 25.3448 63.8422 25.3448 63.3621ZM38.0173 61.5517C38.4974 61.5517 38.9579 61.7425 39.2974 62.082C39.6369 62.4215 39.8276 62.8819 39.8276 63.3621C39.8276 63.8422 39.6369 64.3027 39.2974 64.6422C38.9579 64.9817 38.4974 65.1724 38.0173 65.1724C37.5371 65.1724 37.0766 64.9817 36.7371 64.6422C36.3976 64.3027 36.2069 63.8422 36.2069 63.3621C36.2069 62.8819 36.3976 62.4215 36.7371 62.082C37.0766 61.7425 37.5371 61.5517 38.0173 61.5517ZM43.4483 65.1724H47.069V61.5517C46.1087 61.5517 45.1878 61.9332 44.5088 62.6122C43.8298 63.2912 43.4483 64.2121 43.4483 65.1724ZM48.8793 65.1724H47.069V61.5517H48.8793C49.3595 61.5517 49.8199 61.7425 50.1594 62.082C50.4989 62.4215 50.6897 62.8819 50.6897 63.3621C50.6897 63.8422 50.4989 64.3027 50.1594 64.6422C49.8199 64.9817 49.3595 65.1724 48.8793 65.1724ZM54.3104 65.1724H57.931V61.5517C56.9708 61.5517 56.0498 61.9332 55.3708 62.6122C54.6918 63.2912 54.3104 64.2121 54.3104 65.1724ZM61.5517 61.5517H57.931V65.1724H61.5517V61.5517ZM79.6552 61.5517H76.0345V65.1724H79.6552V61.5517ZM83.2759 61.5517H79.6552V65.1724H83.2759V61.5517ZM83.2759 61.5517V65.1724H86.8966C86.8966 64.2121 86.5151 63.2912 85.8361 62.6122C85.1571 61.9332 84.2361 61.5517 83.2759 61.5517ZM94.1379 65.1724V61.5517H90.5173C90.5173 62.512 90.8987 63.4329 91.5777 64.1119C92.2567 64.7909 93.1777 65.1724 94.1379 65.1724ZM95.9483 65.1724H94.1379V61.5517H95.9483C96.4284 61.5517 96.8889 61.7425 97.2284 62.082C97.5679 62.4215 97.7586 62.8819 97.7586 63.3621C97.7586 63.8422 97.5679 64.3027 97.2284 64.6422C96.8889 64.9817 96.4284 65.1724 95.9483 65.1724ZM105 61.5517H101.379V65.1724H105V61.5517ZM1.81036 65.1724C2.29049 65.1724 2.75096 65.3631 3.09046 65.7026C3.42997 66.0422 3.6207 66.5026 3.6207 66.9828C3.6207 67.4629 3.42997 67.9234 3.09046 68.2629C2.75096 68.6024 2.29049 68.7931 1.81036 68.7931C1.33022 68.7931 0.869755 68.6024 0.53025 68.2629C0.190744 67.9234 1.19497e-05 67.4629 1.19497e-05 66.9828C1.19497e-05 66.5026 0.190744 66.0422 0.53025 65.7026C0.869755 65.3631 1.33022 65.1724 1.81036 65.1724ZM9.05174 65.1724H10.8621V68.7931H9.05174C8.5716 68.7931 8.11113 68.6024 7.77163 68.2629C7.43212 67.9234 7.24139 67.4629 7.24139 66.9828C7.24139 66.5026 7.43212 66.0422 7.77163 65.7026C8.11113 65.3631 8.5716 65.1724 9.05174 65.1724ZM14.4828 65.1724H10.8621V68.7931C11.8223 68.7931 12.7433 68.4116 13.4223 67.7326C14.1013 67.0536 14.4828 66.1327 14.4828 65.1724ZM18.1035 68.7931H21.7241V65.1724C20.7639 65.1724 19.8429 65.5539 19.1639 66.2329C18.4849 66.9119 18.1035 67.8328 18.1035 68.7931ZM23.5345 68.7931H21.7241V65.1724H23.5345C24.0146 65.1724 24.4751 65.3631 24.8146 65.7026C25.1541 66.0422 25.3448 66.5026 25.3448 66.9828C25.3448 67.4629 25.1541 67.9234 24.8146 68.2629C24.4751 68.6024 24.0146 68.7931 23.5345 68.7931ZM30.7759 65.1724H32.5862V68.7931H30.7759C30.2957 68.7931 29.8353 68.6024 29.4958 68.2629C29.1563 67.9234 28.9655 67.4629 28.9655 66.9828C28.9655 66.5026 29.1563 66.0422 29.4958 65.7026C29.8353 65.3631 30.2957 65.1724 30.7759 65.1724ZM32.5862 65.1724V68.7931H36.2069C36.2069 67.8328 35.8254 66.9119 35.1464 66.2329C34.4674 65.5539 33.5465 65.1724 32.5862 65.1724ZM47.069 65.1724H43.4483V68.7931H47.069V65.1724ZM50.6897 68.7931H54.3104V65.1724C53.3501 65.1724 52.4292 65.5539 51.7501 66.2329C51.0711 66.9119 50.6897 67.8328 50.6897 68.7931ZM57.931 65.1724H54.3104V68.7931H57.931V65.1724ZM61.5517 65.1724H57.931V68.7931H61.5517V65.1724ZM61.5517 65.1724V68.7931H65.1724C65.1724 67.8328 64.791 66.9119 64.1119 66.2329C63.4329 65.5539 62.512 65.1724 61.5517 65.1724ZM79.6552 65.1724H76.0345V68.7931H79.6552V65.1724ZM83.2759 66.9828V65.1724H86.8966V66.9828C86.8966 67.4629 86.7058 67.9234 86.3663 68.2629C86.0268 68.6024 85.5664 68.7931 85.0862 68.7931C84.6061 68.7931 84.1456 68.6024 83.8061 68.2629C83.4666 67.9234 83.2759 67.4629 83.2759 66.9828ZM97.7586 68.7931H101.379V65.1724C100.419 65.1724 99.4981 65.5539 98.8191 66.2329C98.1401 66.9119 97.7586 67.8328 97.7586 68.7931ZM105 65.1724H101.379V68.7931C102.34 68.7931 103.261 68.4116 103.94 67.7326C104.619 67.0536 105 66.1327 105 65.1724ZM5.43105 68.7931C5.91118 68.7931 6.37165 68.9838 6.71115 69.3233C7.05066 69.6628 7.24139 70.1233 7.24139 70.6034C7.24139 71.0836 7.05066 71.544 6.71115 71.8836C6.37165 72.2231 5.91118 72.4138 5.43105 72.4138C4.95091 72.4138 4.49044 72.2231 4.15094 71.8836C3.81143 71.544 3.6207 71.0836 3.6207 70.6034C3.6207 70.1233 3.81143 69.6628 4.15094 69.3233C4.49044 68.9838 4.95091 68.7931 5.43105 68.7931ZM14.4828 72.4138H18.1035V68.7931C17.1432 68.7931 16.2223 69.1746 15.5432 69.8536C14.8642 70.5326 14.4828 71.4535 14.4828 72.4138ZM21.7241 68.7931H18.1035V72.4138H21.7241V68.7931ZM28.9655 70.6034V72.4138H25.3448V70.6034C25.3448 70.1233 25.5356 69.6628 25.8751 69.3233C26.2146 68.9838 26.6751 68.7931 27.1552 68.7931C27.6353 68.7931 28.0958 68.9838 28.4353 69.3233C28.7748 69.6628 28.9655 70.1233 28.9655 70.6034ZM32.5862 70.6034V68.7931H36.2069V70.6034C36.2069 71.0836 36.0162 71.544 35.6767 71.8836C35.3372 72.2231 34.8767 72.4138 34.3966 72.4138C33.9164 72.4138 33.456 72.2231 33.1165 71.8836C32.7769 71.544 32.5862 71.0836 32.5862 70.6034ZM47.069 68.7931H43.4483V72.4138H47.069V68.7931ZM50.6897 68.7931H47.069V72.4138H50.6897V68.7931ZM54.3104 68.7931H50.6897V72.4138H54.3104V68.7931ZM61.5517 68.7931H57.931V72.4138H61.5517V68.7931ZM65.1724 68.7931H61.5517V72.4138H65.1724V68.7931ZM66.9828 72.4138H65.1724V68.7931H66.9828C67.4629 68.7931 67.9234 68.9838 68.2629 69.3233C68.6024 69.6628 68.7931 70.1233 68.7931 70.6034C68.7931 71.0836 68.6024 71.544 68.2629 71.8836C67.9234 72.2231 67.4629 72.4138 66.9828 72.4138ZM79.6552 68.7931H76.0345V72.4138H79.6552V68.7931ZM86.8966 72.4138H90.5173V68.7931C89.557 68.7931 88.636 69.1746 87.957 69.8536C87.278 70.5326 86.8966 71.4535 86.8966 72.4138ZM92.3276 72.4138H90.5173V68.7931H92.3276C92.8077 68.7931 93.2682 68.9838 93.6077 69.3233C93.9472 69.6628 94.1379 70.1233 94.1379 70.6034C94.1379 71.0836 93.9472 71.544 93.6077 71.8836C93.2682 72.2231 92.8077 72.4138 92.3276 72.4138ZM97.7586 70.6034V68.7931H101.379V70.6034C101.379 71.0836 101.189 71.544 100.849 71.8836C100.51 72.2231 100.049 72.4138 99.569 72.4138C99.0888 72.4138 98.6284 72.2231 98.2889 71.8836C97.9494 71.544 97.7586 71.0836 97.7586 70.6034ZM1.81036 72.4138C2.29049 72.4138 2.75096 72.6045 3.09046 72.944C3.42997 73.2835 3.6207 73.744 3.6207 74.2241C3.6207 74.7043 3.42997 75.1647 3.09046 75.5042C2.75096 75.8437 2.29049 76.0345 1.81036 76.0345C1.33022 76.0345 0.869755 75.8437 0.53025 75.5042C0.190744 75.1647 1.19497e-05 74.7043 1.19497e-05 74.2241C1.19497e-05 73.744 0.190744 73.2835 0.53025 72.944C0.869755 72.6045 1.33022 72.4138 1.81036 72.4138ZM12.6724 72.4138H14.4828V76.0345H12.6724C12.1923 76.0345 11.7318 75.8437 11.3923 75.5042C11.0528 75.1647 10.8621 74.7043 10.8621 74.2241C10.8621 73.744 11.0528 73.2835 11.3923 72.944C11.7318 72.6045 12.1923 72.4138 12.6724 72.4138ZM18.1035 72.4138H14.4828V76.0345H18.1035V72.4138ZM21.7241 72.4138H18.1035V76.0345H21.7241V72.4138ZM25.3448 72.4138H21.7241V76.0345H25.3448V72.4138ZM28.9655 72.4138H25.3448V76.0345C26.3051 76.0345 27.226 75.653 27.9051 74.974C28.5841 74.295 28.9655 73.3741 28.9655 72.4138ZM39.8276 74.2241V76.0345H36.2069V74.2241C36.2069 73.744 36.3976 73.2835 36.7371 72.944C37.0766 72.6045 37.5371 72.4138 38.0173 72.4138C38.4974 72.4138 38.9579 72.6045 39.2974 72.944C39.6369 73.2835 39.8276 73.744 39.8276 74.2241ZM43.4483 74.2241V72.4138H47.069V74.2241C47.069 74.7043 46.8782 75.1647 46.5387 75.5042C46.1992 75.8437 45.7388 76.0345 45.2586 76.0345C44.7785 76.0345 44.318 75.8437 43.9785 75.5042C43.639 75.1647 43.4483 74.7043 43.4483 74.2241ZM54.3104 72.4138H50.6897V76.0345H54.3104V72.4138ZM57.931 72.4138H54.3104V76.0345H57.931V72.4138ZM61.5517 72.4138H57.931V76.0345H61.5517V72.4138ZM65.1724 72.4138H61.5517V76.0345H65.1724V72.4138ZM68.7931 76.0345H72.4138V72.4138C71.4535 72.4138 70.5326 72.7952 69.8536 73.4743C69.1746 74.1533 68.7931 75.0742 68.7931 76.0345ZM76.0345 72.4138H72.4138V76.0345H76.0345V72.4138ZM79.6552 72.4138H76.0345V76.0345H79.6552V72.4138ZM83.2759 72.4138H79.6552V76.0345H83.2759V72.4138ZM86.8966 72.4138H83.2759V76.0345H86.8966V72.4138ZM90.5173 72.4138H86.8966V76.0345H90.5173V72.4138ZM30.7759 76.0345H32.5862V79.6552H30.7759C30.2957 79.6552 29.8353 79.4644 29.4958 79.1249C29.1563 78.7854 28.9655 78.325 28.9655 77.8448C28.9655 77.3647 29.1563 76.9042 29.4958 76.5647C29.8353 76.2252 30.2957 76.0345 30.7759 76.0345ZM36.2069 76.0345H32.5862V79.6552H36.2069V76.0345ZM39.8276 76.0345H36.2069V79.6552H39.8276V76.0345ZM54.3104 79.6552V76.0345H50.6897C50.6897 76.9947 51.0711 77.9157 51.7501 78.5947C52.4292 79.2737 53.3501 79.6552 54.3104 79.6552ZM57.931 76.0345H54.3104V79.6552C55.2706 79.6552 56.1916 79.2737 56.8706 78.5947C57.5496 77.9157 57.931 76.9947 57.931 76.0345ZM65.1724 76.0345H61.5517V79.6552H65.1724V76.0345ZM72.4138 76.0345H68.7931V79.6552H72.4138V76.0345ZM76.0345 76.0345H72.4138V79.6552H76.0345V76.0345ZM90.5173 76.0345H86.8966V79.6552H90.5173V76.0345ZM95.9483 76.0345H97.7586V79.6552H95.9483C95.4682 79.6552 95.0077 79.4644 94.6682 79.1249C94.3287 78.7854 94.1379 78.325 94.1379 77.8448C94.1379 77.3647 94.3287 76.9042 94.6682 76.5647C95.0077 76.2252 95.4682 76.0345 95.9483 76.0345ZM101.379 76.0345H97.7586V79.6552H101.379V76.0345ZM101.379 76.0345V79.6552H105C105 78.6949 104.619 77.774 103.94 77.095C103.261 76.4159 102.34 76.0345 101.379 76.0345ZM39.8276 79.6552H36.2069V83.2759H39.8276V79.6552ZM43.4483 79.6552H39.8276V83.2759H43.4483V79.6552ZM47.069 79.6552H43.4483V83.2759H47.069V79.6552ZM48.8793 83.2759H47.069V79.6552H48.8793C49.3595 79.6552 49.8199 79.8459 50.1594 80.1854C50.4989 80.5249 50.6897 80.9854 50.6897 81.4655C50.6897 81.9456 50.4989 82.4061 50.1594 82.7456C49.8199 83.0851 49.3595 83.2759 48.8793 83.2759ZM59.7414 79.6552H61.5517V83.2759H59.7414C59.2613 83.2759 58.8008 83.0851 58.4613 82.7456C58.1218 82.4061 57.931 81.9456 57.931 81.4655C57.931 80.9854 58.1218 80.5249 58.4613 80.1854C58.8008 79.8459 59.2613 79.6552 59.7414 79.6552ZM65.1724 79.6552H61.5517V83.2759H65.1724V79.6552ZM72.4138 83.2759V79.6552H68.7931C68.7931 80.6154 69.1746 81.5364 69.8536 82.2154C70.5326 82.8944 71.4535 83.2759 72.4138 83.2759ZM76.0345 79.6552H72.4138V83.2759H76.0345V79.6552ZM81.4655 79.6552C81.9457 79.6552 82.4061 79.8459 82.7456 80.1854C83.0851 80.5249 83.2759 80.9854 83.2759 81.4655C83.2759 81.9456 83.0851 82.4061 82.7456 82.7456C82.4061 83.0851 81.9457 83.2759 81.4655 83.2759C80.9854 83.2759 80.5249 83.0851 80.1854 82.7456C79.8459 82.4061 79.6552 81.9456 79.6552 81.4655C79.6552 80.9854 79.8459 80.5249 80.1854 80.1854C80.5249 79.8459 80.9854 79.6552 81.4655 79.6552ZM90.5173 79.6552H86.8966V83.2759H90.5173V79.6552ZM90.5173 79.6552V83.2759H94.1379C94.1379 82.3156 93.7565 81.3947 93.0775 80.7156C92.3985 80.0366 91.4775 79.6552 90.5173 79.6552ZM101.379 83.2759V79.6552H97.7586C97.7586 80.6154 98.1401 81.5364 98.8191 82.2154C99.4981 82.8944 100.419 83.2759 101.379 83.2759ZM105 79.6552H101.379V83.2759H105V79.6552ZM32.5862 86.8965H36.2069V83.2759C35.2466 83.2759 34.3257 83.6573 33.6467 84.3363C32.9677 85.0153 32.5862 85.9363 32.5862 86.8965ZM39.8276 83.2759H36.2069V86.8965H39.8276V83.2759ZM47.069 83.2759H43.4483V86.8965H47.069V83.2759ZM65.1724 83.2759H61.5517V86.8965H65.1724V83.2759ZM66.9828 86.8965H65.1724V83.2759H66.9828C67.4629 83.2759 67.9234 83.4666 68.2629 83.8061C68.6024 84.1456 68.7931 84.6061 68.7931 85.0862C68.7931 85.5663 68.6024 86.0268 68.2629 86.3663C67.9234 86.7058 67.4629 86.8965 66.9828 86.8965ZM76.0345 83.2759H72.4138V86.8965H76.0345V83.2759ZM90.5173 83.2759H86.8966V86.8965H90.5173V83.2759ZM94.1379 83.2759H90.5173V86.8965C91.4775 86.8965 92.3985 86.5151 93.0775 85.8361C93.7565 85.1571 94.1379 84.2361 94.1379 83.2759ZM101.379 85.0862V83.2759H105V85.0862C105 85.5663 104.809 86.0268 104.47 86.3663C104.13 86.7058 103.67 86.8965 103.19 86.8965C102.71 86.8965 102.249 86.7058 101.91 86.3663C101.57 86.0268 101.379 85.5663 101.379 85.0862ZM30.7759 86.8965H32.5862V90.5172H30.7759C30.2957 90.5172 29.8353 90.3265 29.4958 89.987C29.1563 89.6475 28.9655 89.187 28.9655 88.7069C28.9655 88.2268 29.1563 87.7663 29.4958 87.4268C29.8353 87.0873 30.2957 86.8965 30.7759 86.8965ZM36.2069 86.8965H32.5862V90.5172H36.2069V86.8965ZM39.8276 86.8965H36.2069V90.5172H39.8276V86.8965ZM43.4483 86.8965H39.8276V90.5172H43.4483V86.8965ZM47.069 86.8965H43.4483V90.5172C44.4086 90.5172 45.3295 90.1358 46.0085 89.4568C46.6875 88.7778 47.069 87.8568 47.069 86.8965ZM65.1724 86.8965H61.5517V90.5172H65.1724V86.8965ZM76.0345 86.8965H72.4138V90.5172H76.0345V86.8965ZM79.6552 86.8965H76.0345V90.5172H79.6552V86.8965ZM83.2759 86.8965H79.6552V90.5172H83.2759V86.8965ZM86.8966 86.8965H83.2759V90.5172H86.8966V86.8965ZM90.5173 86.8965H86.8966V90.5172H90.5173V86.8965ZM99.569 86.8965C100.049 86.8965 100.51 87.0873 100.849 87.4268C101.189 87.7663 101.379 88.2268 101.379 88.7069C101.379 89.187 101.189 89.6475 100.849 89.987C100.51 90.3265 100.049 90.5172 99.569 90.5172C99.0888 90.5172 98.6284 90.3265 98.2889 89.987C97.9494 89.6475 97.7586 89.187 97.7586 88.7069C97.7586 88.2268 97.9494 87.7663 98.2889 87.4268C98.6284 87.0873 99.0888 86.8965 99.569 86.8965ZM36.2069 90.5172H32.5862V94.1379H36.2069V90.5172ZM39.8276 92.3276V90.5172H43.4483V92.3276C43.4483 92.8077 43.2576 93.2682 42.918 93.6077C42.5785 93.9472 42.1181 94.1379 41.6379 94.1379C41.1578 94.1379 40.6973 93.9472 40.3578 93.6077C40.0183 93.2682 39.8276 92.8077 39.8276 92.3276ZM48.8793 90.5172C49.3595 90.5172 49.8199 90.708 50.1594 91.0475C50.4989 91.387 50.6897 91.8475 50.6897 92.3276C50.6897 92.8077 50.4989 93.2682 50.1594 93.6077C49.8199 93.9472 49.3595 94.1379 48.8793 94.1379C48.3992 94.1379 47.9387 93.9472 47.5992 93.6077C47.2597 93.2682 47.069 92.8077 47.069 92.3276C47.069 91.8475 47.2597 91.387 47.5992 91.0475C47.9387 90.708 48.3992 90.5172 48.8793 90.5172ZM59.7414 90.5172H61.5517V94.1379H59.7414C59.2613 94.1379 58.8008 93.9472 58.4613 93.6077C58.1218 93.2682 57.931 92.8077 57.931 92.3276C57.931 91.8475 58.1218 91.387 58.4613 91.0475C58.8008 90.708 59.2613 90.5172 59.7414 90.5172ZM65.1724 90.5172H61.5517V94.1379H65.1724V90.5172ZM68.7931 90.5172H65.1724V94.1379H68.7931V90.5172ZM72.4138 90.5172H68.7931V94.1379H72.4138V90.5172ZM76.0345 90.5172H72.4138V94.1379C73.3741 94.1379 74.295 93.7565 74.974 93.0775C75.653 92.3984 76.0345 91.4775 76.0345 90.5172ZM86.8966 90.5172H83.2759V94.1379H86.8966V90.5172ZM90.5173 90.5172H86.8966V94.1379H90.5173V90.5172ZM95.9483 90.5172C96.4284 90.5172 96.8889 90.708 97.2284 91.0475C97.5679 91.387 97.7586 91.8475 97.7586 92.3276C97.7586 92.8077 97.5679 93.2682 97.2284 93.6077C96.8889 93.9472 96.4284 94.1379 95.9483 94.1379C95.4682 94.1379 95.0077 93.9472 94.6682 93.6077C94.3287 93.2682 94.1379 92.8077 94.1379 92.3276C94.1379 91.8475 94.3287 91.387 94.6682 91.0475C95.0077 90.708 95.4682 90.5172 95.9483 90.5172ZM30.7759 94.1379H32.5862V97.7586H30.7759C30.2957 97.7586 29.8353 97.5679 29.4958 97.2284C29.1563 96.8889 28.9655 96.4284 28.9655 95.9483C28.9655 95.4681 29.1563 95.0077 29.4958 94.6682C29.8353 94.3287 30.2957 94.1379 30.7759 94.1379ZM36.2069 94.1379H32.5862V97.7586H36.2069V94.1379ZM72.4138 94.1379H68.7931V97.7586H72.4138V94.1379ZM86.8966 97.7586V94.1379H83.2759C83.2759 95.0982 83.6573 96.0191 84.3363 96.6981C85.0154 97.3772 85.9363 97.7586 86.8966 97.7586ZM90.5173 94.1379H86.8966V97.7586H90.5173V94.1379ZM92.3276 97.7586H90.5173V94.1379H92.3276C92.8077 94.1379 93.2682 94.3287 93.6077 94.6682C93.9472 95.0077 94.1379 95.4681 94.1379 95.9483C94.1379 96.4284 93.9472 96.8889 93.6077 97.2284C93.2682 97.5679 92.8077 97.7586 92.3276 97.7586ZM103.19 94.1379C103.67 94.1379 104.13 94.3287 104.47 94.6682C104.809 95.0077 105 95.4681 105 95.9483C105 96.4284 104.809 96.8889 104.47 97.2284C104.13 97.5679 103.67 97.7586 103.19 97.7586C102.71 97.7586 102.249 97.5679 101.91 97.2284C101.57 96.8889 101.379 96.4284 101.379 95.9483C101.379 95.4681 101.57 95.0077 101.91 94.6682C102.249 94.3287 102.71 94.1379 103.19 94.1379ZM36.2069 97.7586H32.5862V101.379H36.2069V97.7586ZM48.8793 97.7586H50.6897V101.379H48.8793C48.3992 101.379 47.9387 101.189 47.5992 100.849C47.2597 100.51 47.069 100.049 47.069 99.569C47.069 99.0888 47.2597 98.6284 47.5992 98.2889C47.9387 97.9493 48.3992 97.7586 48.8793 97.7586ZM54.3104 97.7586H50.6897V101.379H54.3104V97.7586ZM56.1207 101.379H54.3104V97.7586H56.1207C56.6008 97.7586 57.0613 97.9493 57.4008 98.2889C57.7403 98.6284 57.931 99.0888 57.931 99.569C57.931 100.049 57.7403 100.51 57.4008 100.849C57.0613 101.189 56.6008 101.379 56.1207 101.379ZM65.1724 99.569V101.379H61.5517V99.569C61.5517 99.0888 61.7425 98.6284 62.082 98.2889C62.4215 97.9493 62.8819 97.7586 63.3621 97.7586C63.8422 97.7586 64.3027 97.9493 64.6422 98.2889C64.9817 98.6284 65.1724 99.0888 65.1724 99.569ZM72.4138 97.7586H68.7931V101.379H72.4138V97.7586ZM76.0345 97.7586H72.4138V101.379H76.0345V97.7586ZM79.6552 97.7586H76.0345V101.379H79.6552V97.7586ZM79.6552 97.7586V101.379H83.2759C83.2759 100.419 82.8944 99.4981 82.2154 98.8191C81.5364 98.1401 80.6154 97.7586 79.6552 97.7586ZM90.5173 97.7586H86.8966V101.379H90.5173V97.7586ZM101.379 99.569V101.379H97.7586V99.569C97.7586 99.0888 97.9494 98.6284 98.2889 98.2889C98.6284 97.9493 99.0888 97.7586 99.569 97.7586C100.049 97.7586 100.51 97.9493 100.849 98.2889C101.189 98.6284 101.379 99.0888 101.379 99.569ZM30.7759 101.379H32.5862V105H30.7759C30.2957 105 29.8353 104.809 29.4958 104.47C29.1563 104.13 28.9655 103.67 28.9655 103.19C28.9655 102.71 29.1563 102.249 29.4958 101.91C29.8353 101.57 30.2957 101.379 30.7759 101.379ZM36.2069 101.379H32.5862V105H36.2069V101.379ZM39.8276 101.379H36.2069V105H39.8276V101.379ZM41.6379 105H39.8276V101.379H41.6379C42.1181 101.379 42.5785 101.57 42.918 101.91C43.2576 102.249 43.4483 102.71 43.4483 103.19C43.4483 103.67 43.2576 104.13 42.918 104.47C42.5785 104.809 42.1181 105 41.6379 105ZM61.5517 103.19V101.379H65.1724V103.19C65.1724 103.67 64.9817 104.13 64.6422 104.47C64.3027 104.809 63.8422 105 63.3621 105C62.8819 105 62.4215 104.809 62.082 104.47C61.7425 104.13 61.5517 103.67 61.5517 103.19ZM72.4138 105V101.379H68.7931C68.7931 102.34 69.1746 103.261 69.8536 103.94C70.5326 104.619 71.4535 105 72.4138 105ZM76.0345 101.379H72.4138V105H76.0345V101.379ZM79.6552 101.379H76.0345V105H79.6552V101.379ZM83.2759 101.379H79.6552V105H83.2759V101.379ZM86.8966 101.379H83.2759V105H86.8966V101.379ZM90.5173 101.379H86.8966V105C87.8568 105 88.7778 104.619 89.4568 103.94C90.1358 103.261 90.5173 102.34 90.5173 101.379ZM101.379 105V101.379H97.7586C97.7586 102.34 98.1401 103.261 98.8191 103.94C99.4981 104.619 100.419 105 101.379 105ZM103.19 105H101.379V101.379H103.19C103.67 101.379 104.13 101.57 104.47 101.91C104.809 102.249 105 102.71 105 103.19C105 103.67 104.809 104.13 104.47 104.47C104.13 104.809 103.67 105 103.19 105ZM16.6914 0.00206897H8.65346C4.73484 0.00206897 1.4157 2.59034 0.354322 6.12828C0.118002 6.9157 -0.00137514 7.73357 1.19497e-05 8.55569V16.7855C1.19497e-05 21.5043 3.88294 25.3422 8.65346 25.3422L12.6724 25.3428L16.6914 25.3417C21.4619 25.3417 25.3448 21.5043 25.3448 16.7855V8.55621C25.3448 3.83845 21.4619 0.00155172 16.6914 0.00155172V0.00206897ZM21.5431 16.7855C21.5431 19.4074 19.3671 21.5405 16.6909 21.5405L12.6724 21.541L8.65398 21.54C5.97777 21.54 3.80174 19.4069 3.80174 16.7855V8.55621C3.80174 7.7369 4.0138 6.96621 4.38777 6.29224C4.75006 5.64292 5.25759 5.08618 5.8707 4.66552C6.68935 4.1026 7.65995 3.80221 8.65346 3.80431H16.6914C19.3666 3.80431 21.5426 5.93586 21.5426 8.55621V16.786L21.5431 16.7855ZM96.3471 0.00206897H88.3081C84.3905 0.00206897 81.0714 2.59034 80.01 6.12828C79.7735 6.91568 79.654 7.73354 79.6552 8.55569V16.7855C79.6552 21.5043 83.5381 25.3422 88.3081 25.3422L92.3276 25.3428L96.3471 25.3417C101.117 25.3417 105 21.5043 105 16.7855V8.55621C105 3.83897 101.117 0.00206897 96.3471 0.00206897ZM101.198 16.7855C101.198 19.4074 99.0223 21.5405 96.346 21.5405L92.3276 21.541L88.3092 21.54C85.6329 21.54 83.4569 19.4069 83.4569 16.7855V8.55621C83.4569 7.7369 83.6695 6.96621 84.0429 6.29224C84.4051 5.64287 84.9125 5.08597 85.5254 4.665C86.344 4.10205 87.3146 3.80166 88.3081 3.80379H96.3471C99.0223 3.80379 101.198 5.93534 101.198 8.55569V16.7855ZM16.6914 79.6572H8.65346C4.73536 79.6572 1.41622 82.2455 0.35484 85.7834C0.118557 86.5709 -0.00099078 87.3887 1.19497e-05 88.2109V96.4407C1.19497e-05 101.16 3.88294 104.997 8.65346 104.997L12.6724 104.998L16.6914 104.997C21.4619 104.997 25.3448 101.159 25.3448 96.4407V88.2109C25.3448 83.4947 21.4619 79.6572 16.6914 79.6572ZM21.5431 96.4407C21.5431 99.0626 19.3671 101.196 16.6909 101.196L12.6724 101.196L8.65398 101.195C5.97777 101.195 3.80174 99.0621 3.80174 96.4407V88.2109C3.80111 87.4188 4.00284 86.6397 4.38777 85.9474C4.74983 85.2979 5.25719 84.741 5.87018 84.3202C6.68883 83.7572 7.65944 83.4569 8.65294 83.459H16.6914C19.3666 83.459 21.5426 85.5905 21.5426 88.2109V96.4407H21.5431Z" fill="black"/>
<path d="M10.2124 18.1034C8.57276 18.1034 7.23983 16.7963 7.23983 15.1913V10.1519C7.23983 9.65013 7.37017 9.17841 7.59827 8.76565C7.81969 8.3675 8.13063 8.02628 8.50655 7.76892C9.00782 7.42431 9.60204 7.2403 10.2103 7.24134H15.1334C16.771 7.24134 18.1045 8.54686 18.1045 10.1519V15.1913C18.1045 16.7963 16.771 18.1034 15.1334 18.1034H10.2124ZM89.8676 18.1034C88.2285 18.1034 86.895 16.7963 86.895 15.1913V10.1519C86.895 9.65013 87.0253 9.17841 87.2534 8.76565C87.4748 8.36745 87.7857 8.02621 88.1617 7.76892C88.6631 7.42418 89.2575 7.24017 89.866 7.24134H94.7891C96.4267 7.24134 97.7602 8.54686 97.7602 10.1519V15.1913C97.7602 16.7963 96.4267 18.1034 94.7891 18.1034H89.8676ZM10.2124 97.7586C8.57276 97.7586 7.23983 96.4515 7.23983 94.8465V89.807C7.23983 89.3053 7.37017 88.8336 7.59827 88.4208C7.81987 88.0228 8.13078 87.6816 8.50655 87.4241C9.00783 87.0795 9.60205 86.8955 10.2103 86.8965H15.1334C16.771 86.8965 18.1045 88.202 18.1045 89.807V94.8465C18.1045 96.4515 16.771 97.7586 15.1334 97.7586H10.2124Z" fill="black"/>
</g>
<rect x="1" y="1" width="103" height="103" rx="13" stroke="black" stroke-width="2"/>
<defs>
<clipPath id="clip0_31_239">
<rect width="105" height="105" rx="14" fill="white"/>
</clipPath>
</defs>
</svg>
