<svg width="40" height="40" viewBox="0 0 40 40" fill="none" xmlns="http://www.w3.org/2000/svg">
<path fill-rule="evenodd" clip-rule="evenodd" d="M13.4616 21.1737C13.6478 19.508 13.7409 18.6753 14.5826 17.8458C15.4243 17.0163 16.2646 16.9348 17.9451 16.7718C18.6001 16.7083 19.2974 16.6667 19.9999 16.6667C20.7026 16.6667 21.4001 16.7083 22.0553 16.7718C23.7353 16.9348 24.5753 17.0163 25.4168 17.8457C26.2584 18.675 26.3516 19.5075 26.5379 21.1725C26.6153 21.8627 26.6666 22.598 26.6666 23.3333C26.6666 24.1028 26.6104 24.8658 26.5271 25.5738C26.3413 27.1538 26.2484 27.9437 25.4304 28.762C24.6126 29.5802 23.8228 29.6733 22.2433 29.8598C21.5343 29.9435 20.7703 30 19.9999 30C19.2298 30 18.4659 29.9435 17.7571 29.8598C16.177 29.6735 15.3869 29.5802 14.569 28.7618C13.751 27.9435 13.6582 27.1532 13.4725 25.5727C13.3894 24.865 13.3333 24.1023 13.3333 23.3333C13.3333 22.5983 13.3845 21.8635 13.4616 21.1737ZM18.2669 20.0897C18.8381 20.0342 19.4258 20 19.9999 20C20.5743 20 21.1621 20.0342 21.7334 20.0897C22.1698 20.132 22.4743 20.162 22.7326 20.1962C22.8774 20.2155 22.9798 20.2327 23.0518 20.2467C23.0664 20.3167 23.0846 20.4155 23.1051 20.5547C23.1428 20.8097 23.1769 21.1107 23.2254 21.5433C23.2921 22.1398 23.3333 22.7485 23.3333 23.3333C23.3333 23.9452 23.2883 24.5752 23.2166 25.1845C23.1681 25.596 23.1346 25.8777 23.0979 26.1158C23.0796 26.2352 23.0636 26.3213 23.0504 26.383C22.9889 26.396 22.9028 26.412 22.7836 26.4305C22.5456 26.4672 22.2639 26.5008 21.8526 26.5495C21.2424 26.6215 20.6119 26.6667 19.9999 26.6667C19.3881 26.6667 18.7576 26.6215 18.1478 26.5495C17.7361 26.501 17.4544 26.4673 17.2163 26.4305C17.0969 26.412 17.0108 26.396 16.9491 26.383C16.9361 26.3213 16.9201 26.235 16.9016 26.1155C16.8649 25.8772 16.8314 25.5955 16.7831 25.1837C16.7116 24.5747 16.6666 23.945 16.6666 23.3333C16.6666 22.7487 16.7076 22.1403 16.7743 21.544C16.8228 21.1112 16.8568 20.8102 16.8944 20.555C16.9151 20.4157 16.9331 20.3167 16.9479 20.2467C17.0198 20.2325 17.1223 20.2153 17.2673 20.1962C17.5258 20.1618 17.8304 20.132 18.2669 20.0897Z" fill="black"/>
<path fill-rule="evenodd" clip-rule="evenodd" d="M24.7706 5.40581C23.4961 4.13123 21.8027 3.33334 20.0001 3.33334C18.7894 3.33334 17.6337 3.38831 16.5529 3.47828C13.3169 3.74766 11.6989 3.88234 9.54225 6.03146C7.38555 8.18059 7.23908 9.86831 6.94613 13.2437C6.7794 15.1649 6.66675 17.4183 6.66675 20.0005C6.66675 22.5838 6.77948 24.8378 6.94631 26.7593C7.23925 30.1332 7.38572 31.8202 9.54203 33.9692C12.2705 36.6883 16.3663 36.6678 20.0001 36.6678C23.6339 36.6678 27.7297 36.6882 30.4583 33.9692C32.6146 31.8202 32.7609 30.1333 33.0539 26.7595C33.2207 24.838 33.3336 22.5838 33.3336 20.0005L33.3334 19.8635C33.3292 17.1208 33.3271 15.7494 32.6929 14.2216C32.0586 12.6938 30.9567 11.5919 28.7529 9.38806L24.7706 5.40581ZM16.8294 6.80013C17.8267 6.71711 18.8899 6.66668 20.0001 6.66668C20.8011 6.66668 21.6757 7.02504 22.4136 7.76283L26.3959 11.7451C28.7637 14.1129 29.2889 14.7158 29.6142 15.4996C29.9462 16.2993 29.9956 16.9545 30.0001 19.8687L30.0002 20.0005C30.0002 22.4867 29.8917 24.6447 29.7331 26.4712C29.5771 28.2688 29.4856 29.1405 29.2694 29.8418C29.1091 30.362 28.8536 30.8623 28.1052 31.608C27.3397 32.371 26.8469 32.6185 26.3667 32.7682C24.4017 33.3807 22.0449 33.3345 20.0001 33.3345C17.9554 33.3345 15.5985 33.3807 13.6335 32.7682C13.1534 32.6185 12.6605 32.371 11.895 31.608C11.1467 30.8623 10.8912 30.362 10.7308 29.8417C10.5147 29.1403 10.4232 28.2687 10.2671 26.471C10.1086 24.6445 10.0001 22.4867 10.0001 20.0005C10.0001 17.5153 10.1085 15.3581 10.267 13.5319C10.4231 11.7335 10.5145 10.8612 10.7308 10.1594C10.8912 9.63876 11.1468 9.13834 11.8951 8.39263C12.6606 7.62979 13.1536 7.38218 13.6342 7.23248C14.2905 7.02803 15.1004 6.94406 16.8294 6.80013Z" fill="black"/>
</svg>
