<svg width="40" height="40" viewBox="0 0 40 40" fill="none" xmlns="http://www.w3.org/2000/svg">
<path fill-rule="evenodd" clip-rule="evenodd" d="M24.0922 22.3087L17.6868 15.8999L17.6903 15.8952C19.1657 14.2559 19.9033 13.4362 19.893 11.8197C19.8827 10.2032 19.177 9.43896 17.7658 7.91053C17.6202 7.7527 17.4707 7.59671 17.318 7.44398C16.1765 6.30185 14.9302 5.63535 14.0839 5.27673C12.973 4.8061 11.7967 5.0057 10.6869 5.35698C9.62879 5.6919 8.40301 6.2819 7.42044 7.32066C6.66144 8.09831 6.12561 8.84678 5.73499 9.738C4.49692 12.5627 4.91764 15.8568 6.29076 18.6183C7.42986 20.9092 9.4168 23.9588 12.8713 27.4152C16.2536 30.7993 18.9585 32.488 21.2312 33.6388C24.0777 35.0803 27.506 35.5467 30.3988 34.2008C31.2302 33.814 31.9415 33.2922 32.68 32.5687C34.183 31.1373 34.7407 29.1957 34.9472 28.0052C35.0665 27.3167 34.9822 26.5575 34.7097 25.9138C34.3512 25.067 33.6852 23.82 32.5437 22.6778C32.391 22.5252 32.235 22.3757 32.0773 22.2298C30.5497 20.8178 29.7858 20.1118 28.1702 20.1015C26.5547 20.0912 25.7353 20.8293 24.097 22.3053L24.0922 22.3087ZM27.3 23.9277C27.579 23.694 27.7535 23.5705 27.8602 23.5063C28.0218 23.4092 28.2633 23.394 28.4273 23.4933C28.5095 23.5432 28.6487 23.641 28.8902 23.8463C29.1383 24.0572 29.418 24.3148 29.8142 24.681C30.5385 25.3507 31.5618 26.407 31.6593 27.444C31.5015 28.3468 31.1217 29.4457 30.3805 30.1515L30.3465 30.1843C29.8155 30.7047 29.409 30.9812 28.9925 31.1748C27.2973 31.9635 24.9763 31.7952 22.7373 30.6613C20.7532 29.6567 18.3422 28.1698 15.2297 25.0555C12.021 21.8452 10.2496 19.0882 9.27687 17.1318C8.21461 14.9955 8.05196 12.7608 8.78944 11.0782C9.03569 10.5164 9.42124 10.0533 9.84282 9.6145C10.5479 8.8691 11.6492 8.4871 12.5544 8.32868C13.4369 8.4117 14.3634 9.20705 14.9597 9.80365C15.0789 9.92293 15.1978 10.047 15.316 10.175C15.6819 10.5713 15.9394 10.8511 16.1502 11.0993C16.3554 11.341 16.4531 11.4803 16.503 11.5626C16.5968 11.7174 16.5811 11.9783 16.49 12.1299C16.4282 12.2328 16.3154 12.3939 16.0939 12.6605C15.8712 12.9285 15.5979 13.2334 15.2029 13.6664L14.1203 14.7946C13.4908 15.4505 13.5022 16.49 14.1459 17.132L22.8193 25.782C23.437 26.398 24.425 26.4337 25.0855 25.8638L26.344 24.7782C26.7505 24.407 27.0445 24.1418 27.3015 23.9285L27.3 23.9277Z" fill="black"/>
</svg>
